<svg width="24" height="24" viewBox="0 0 24 24" fill="none" xmlns="http://www.w3.org/2000/svg">
    <g clip-path="url(#clip0_1469_14761)">
        <path fill-rule="evenodd" clip-rule="evenodd"
              d="M20.6 15.4707C19.8965 14.8244 19.5009 14.2887 19.5 13.374V9.47368C19.5 5.87479 16.7971 2.88725 13.25 2.31095V1.575C13.25 1.25744 12.9702 1 12.625 1H11.375C11.0298 1 10.75 1.25744 10.75 1.575V2.31095C7.20286 2.88725 4.5 5.87479 4.5 9.47368V13.374C4.49912 14.2887 4.10346 14.8244 3.4 15.4707L2.3625 16.4252C2.13157 16.6394 2.00138 16.9286 2 17.2302V17.9087C2 18.5439 2.55964 19.0587 3.25 19.0587H20.75C21.4404 19.0587 22 18.5439 22 17.9087V17.2302C21.9986 16.9286 21.8684 16.6394 21.6375 16.4252L20.6 15.4707ZM14.7716 22.1481C14.9224 21.7841 15 21.394 15 21H12H9C9 21.394 9.0776 21.7841 9.22836 22.1481C9.37913 22.512 9.6001 22.8427 9.87868 23.1213C10.1573 23.3999 10.488 23.6209 10.8519 23.7716C11.2159 23.9224 11.606 24 12 24C12.394 24 12.7841 23.9224 13.1481 23.7716C13.512 23.6209 13.8427 23.3999 14.1213 23.1213C14.3999 22.8427 14.6209 22.512 14.7716 22.1481Z"
              fill="#757575"/>
        <circle cx="21.75" cy="2.25" r="2.25" fill="#FF565C"/>
    </g>
    <defs>
        <clipPath id="clip0_1469_14761">
            <rect width="24" height="24" fill="white"/>
        </clipPath>
    </defs>
</svg>
