<svg width="28" height="35" viewBox="0 0 28 35" fill="none" xmlns="http://www.w3.org/2000/svg">
<path d="M26.4698 3.91328V24.0463C26.4698 24.2319 26.6973 24.3212 26.8236 24.1852L27.6633 23.281C27.8737 23.0544 27.9906 22.7566 27.9906 22.4475V3.87897C27.9906 1.73668 26.2539 0 24.1116 0H6.42884C5.60476 0 4.78975 0.172036 4.03598 0.505101L0.793426 1.93786C0.394383 2.11418 0.119232 2.48943 0.0710553 2.92302C0.0249536 3.33793 0.0903199 3.76136 0.28343 4.13148C0.619523 4.77564 0.894031 5.06295 1.55946 4.86976L3.11907 4.41697C3.30568 4.36279 3.44469 4.20642 3.47663 4.01475C3.58986 3.33541 4.04119 2.76047 4.67421 2.48917L5.27863 2.23014C5.83043 1.99365 6.42451 1.87171 7.02485 1.87171H24.4283C25.5558 1.87171 26.4698 2.78575 26.4698 3.91328Z" fill="#BDBDBD"/>
<path d="M0.0319894 33.0489V28.2478C0.0319894 27.5712 0.580414 27.0228 1.25693 27.0228H5.33791C6.38206 27.0228 6.94748 28.2455 6.27124 29.0411L2.19026 33.8422C1.4521 34.7107 0.0319894 34.1887 0.0319894 33.0489Z" fill="#BDBDBD"/>
<path d="M0.0319902 3.39251H20.3064C21.7722 3.39251 22.9605 4.58076 22.9605 6.04654V26.7085C22.9605 28.1743 21.7722 29.3625 20.3064 29.3625H0.0319902V3.39251Z" fill="#BDBDBD"/>
<path fill-rule="evenodd" clip-rule="evenodd" d="M8.15341 10.8203C6.59925 10.8203 5.33936 12.0802 5.33936 13.6344C5.33936 14.7431 5.9805 15.702 6.91225 16.1606C8.63912 16.3079 9.69004 16.1115 10.37 15.7867C10.8082 15.5774 10.7755 15.0015 10.3906 14.7053L9.82491 14.2701C9.55499 14.0625 9.62665 13.6376 9.94975 13.5299C10.0344 13.5017 10.1258 13.5008 10.2109 13.5274L12.4497 14.227C13.3976 13.3975 14.77 13.2892 15.1156 13.4867C15.1986 14.0679 14.5592 14.6586 13.9822 15.045C13.6161 15.2902 13.3781 15.7104 13.4364 16.1471L13.6031 17.3978C13.6225 17.5435 13.5617 17.6883 13.4441 17.7765C13.2372 17.9317 12.9399 17.8566 12.8315 17.6217L12.5005 16.9046C12.2992 16.4684 11.8052 16.2201 11.3799 16.4437C10.1306 17.1007 9.80896 18.3531 9.80896 18.9801L9.80775 18.9789V20.0485C9.80775 21.6043 11.069 22.8655 12.6248 22.8655C14.1806 22.8655 15.4418 21.6043 15.4418 20.0485V16.4484H17.0399C18.5941 16.4484 19.854 15.1885 19.854 13.6344C19.854 12.0802 18.5941 10.8203 17.0399 10.8203H8.15341Z" fill="white"/>
<path d="M25.1436 5.92041H27.3893C27.7275 5.92041 28.0017 6.19462 28.0017 6.53288V10.2077C28.0017 10.546 27.7275 10.8202 27.3893 10.8202H25.1436V5.92041Z" fill="#BDBDBD"/>
<path d="M25.1436 9.18691H27.3893C27.7275 9.18691 28.0017 9.46113 28.0017 9.79938V13.4742C28.0017 13.8125 27.7275 14.0867 27.3893 14.0867H25.1436V9.18691Z" fill="#9E9E9E"/>
<path d="M25.1436 12.8617H27.3893C27.7275 12.8617 28.0017 13.1359 28.0017 13.4742V17.149C28.0017 17.4873 27.7275 17.7615 27.3893 17.7615H25.1436V12.8617Z" fill="#BDBDBD"/>
<path d="M25.1436 16.5365H27.3893C27.7275 16.5365 28.0017 16.8108 28.0017 17.149V19.8031C28.0017 20.1413 27.7275 20.4155 27.3893 20.4155H25.1436V16.5365Z" fill="#9E9E9E"/>
</svg>
