<svg width="20" height="20" viewBox="0 0 20 20" fill="none" xmlns="http://www.w3.org/2000/svg">
<path fill-rule="evenodd" clip-rule="evenodd" d="M3.84467 3.84467C4.13756 3.55178 4.61243 3.55178 4.90533 3.84467L9.99998 8.93934L15.0946 3.84467C15.3875 3.55178 15.8624 3.55178 16.1553 3.84467C16.4482 4.13756 16.4482 4.61244 16.1553 4.90533L11.0606 10L16.1553 15.0947C16.4482 15.3876 16.4482 15.8624 16.1553 16.1553C15.8624 16.4482 15.3875 16.4482 15.0946 16.1553L9.99998 11.0607L4.90533 16.1553C4.61243 16.4482 4.13756 16.4482 3.84467 16.1553C3.55178 15.8624 3.55178 15.3876 3.84467 15.0947L8.93932 10L3.84467 4.90533C3.55178 4.61244 3.55178 4.13756 3.84467 3.84467Z" fill="#757575"/>
</svg>
