<svg width="24" height="24" viewBox="0 0 24 24" fill="none" xmlns="http://www.w3.org/2000/svg">
<path d="M19.1992 6.61035C20.21 6.71057 20.999 7.56342 20.999 8.60059V19C20.9988 20.1044 20.1034 21 18.999 21H8.59961C7.56277 20.9998 6.70977 20.2107 6.60938 19.2002H17.1992C18.3036 19.2002 19.199 18.3046 19.1992 17.2002V6.61035ZM15.4004 3C16.5048 3.00021 17.4004 3.89556 17.4004 5V15.4004C17.4002 16.5047 16.5047 17.4002 15.4004 17.4004H5C3.89556 17.4004 3.00021 16.5048 3 15.4004V5C3 3.89543 3.89543 3 5 3H15.4004Z" fill="#757575"/>
</svg>
