<svg width="24" height="24" viewBox="0 0 24 24" fill="none" xmlns="http://www.w3.org/2000/svg">
<path d="M19.5 17.1918C19.7761 17.1918 20 17.4156 20 17.6918V20.7474C20 21.0236 19.7761 21.2474 19.5 21.2474H4.5C4.22386 21.2474 4.00001 21.0236 4 20.7474V17.6918C4 17.4156 4.22386 17.1918 4.5 17.1918H19.5ZM12 3.24744C15.3137 3.24744 18 5.93373 18 9.24744V14.4144C18 14.9667 17.5523 15.4144 17 15.4144H7C6.44772 15.4144 6 14.9667 6 14.4144V9.24744C6 5.93373 8.68629 3.24744 12 3.24744Z" fill="#757575"/>
</svg>
