<svg width="12" height="12" viewBox="0 0 12 12" fill="none" xmlns="http://www.w3.org/2000/svg">
<path d="M2.99887 3C2.99887 1.34315 4.34252 0 6 0C7.65748 0 9.00114 1.34315 9.00114 3C9.00114 4.65685 7.65748 6 6 6C5.20405 6 4.4407 5.68393 3.87788 5.12132C3.31505 4.55871 2.99887 3.79565 2.99887 3ZM11.9197 10.9125L10.8393 8.745C10.4576 7.98063 9.67572 7.49832 8.82107 7.5H3.17893C2.32428 7.49832 1.54241 7.98063 1.16067 8.745L0.0802615 10.9125C-0.0367597 11.1446 -0.0251876 11.4208 0.110845 11.6423C0.246878 11.8639 0.487971 11.9992 0.748014 12H11.252C11.512 11.9992 11.7531 11.8639 11.8892 11.6423C12.0252 11.4208 12.0368 11.1446 11.9197 10.9125Z" fill="#FAFAFA"/>
</svg>
