<svg width="24" height="24" viewBox="0 0 24 24" fill="none" xmlns="http://www.w3.org/2000/svg">
<g clip-path="url(#clip0_1006_8895)">
<path d="M19 5.25V6.15C19 6.39853 18.8041 6.6 18.5625 6.6H5.4375C5.19588 6.6 5 6.39853 5 6.15V5.25C5 5.00147 5.19588 4.8 5.4375 4.8H9.375V3.9C9.375 3.40294 9.76675 3 10.25 3H13.75C14.2332 3 14.625 3.40294 14.625 3.9V4.8H18.5625C18.8041 4.8 19 5.00147 19 5.25ZM6.63625 19.326C6.70069 20.2706 7.46564 21.0023 8.38625 21H15.6312C16.5519 21.0023 17.3168 20.2706 17.3812 19.326L18.125 8.4H5.875L6.63625 19.326Z" fill="#757575"/>
</g>
<defs>
<clipPath id="clip0_1006_8895">
<rect width="24" height="24" fill="white"/>
</clipPath>
</defs>
</svg>
