<svg width="24" height="24" viewBox="0 0 24 24" fill="none" xmlns="http://www.w3.org/2000/svg">
<path d="M18.008 2.22781C17.0144 2.22781 16.0092 2.57083 15.2892 3.28982C14.7541 3.82582 12.2018 6.37781 11.008 7.57181L10.7267 7.28982C10.5315 7.09482 10.2639 7.00882 10.008 7.00882C9.75206 7.00882 9.48446 7.09482 9.28916 7.28982C8.89866 7.68082 8.89866 8.33781 9.28916 8.72781L10.0705 9.50882L3.28916 16.2898C3.17946 16.3998 3.11956 16.5498 3.07046 16.6968C2.94546 17.0718 2.19546 19.3218 2.07046 19.6968C1.95066 20.0558 2.02136 20.4598 2.28916 20.7278L3.28916 21.7278C3.55706 21.9958 3.96106 22.0658 4.32046 21.9468L7.32046 20.9468C7.46776 20.8978 7.61686 20.8378 7.72666 20.7278L14.508 13.9468L15.2892 14.7278C15.6798 15.1188 16.3362 15.1188 16.7267 14.7278C17.1173 14.3368 17.1172 13.6808 16.7267 13.2898L16.4455 13.0088L20.7267 8.72781C22.1666 7.28781 22.1666 4.73082 20.7267 3.28982C20.0068 2.57083 19.0016 2.22781 18.008 2.22781ZM11.508 10.9468L13.0705 12.5398L6.41416 19.1648L4.32046 19.8838L4.16416 19.7278C4.39376 19.0388 4.68846 18.0928 4.85166 17.6028L11.508 10.9468Z" fill="#212121"/>
</svg>
