<svg width="24" height="24" viewBox="0 0 24 24" fill="none" xmlns="http://www.w3.org/2000/svg">
<g clip-path="url(#clip0_1006_8597)">
<path d="M22 12.2667V20.8889C22 21.5025 21.5025 22 20.8889 22H16.4444C15.8308 22 15.3333 21.5025 15.3333 20.8889V14.7778C15.3333 14.471 15.0846 14.2222 14.7778 14.2222H9.22222C8.9154 14.2222 8.66667 14.471 8.66667 14.7778V20.8889C8.66667 21.5025 8.16921 22 7.55556 22H3.11111C2.49746 22 2 21.5025 2 20.8889V12.2667C2.00078 11.3829 2.35248 10.5356 2.97778 9.91111L10.5667 2.32222C10.7736 2.11695 11.053 2.00123 11.3444 2H12.6556C12.947 2.00123 13.2264 2.11695 13.4333 2.32222L21.0222 9.91111C21.6475 10.5356 21.9992 11.3829 22 12.2667Z" fill="#212121"/>
</g>
<defs>
<clipPath id="clip0_1006_8597">
<rect width="24" height="24" fill="white"/>
</clipPath>
</defs>
</svg>
