<svg width="24" height="24" viewBox="0 0 24 24" fill="none" xmlns="http://www.w3.org/2000/svg">
<g clip-path="url(#clip0_1006_8604)">
<path d="M20 4H4C2.89543 4 2 4.89543 2 6V18C2 19.1046 2.89543 20 4 20H20C21.1046 20 22 19.1046 22 18V6C22 4.89543 21.1046 4 20 4ZM20 6V14H16.24C15.6059 14.0018 15.0414 14.4021 14.83 15C14.4075 16.2009 13.2731 17.0045 12 17.0045C10.7269 17.0045 9.59247 16.2009 9.17 15C8.95863 14.4021 8.39413 14.0018 7.76 14H4V6H20Z" fill="#212121"/>
</g>
<defs>
<clipPath id="clip0_1006_8604">
<rect width="24" height="24" fill="white"/>
</clipPath>
</defs>
</svg>
