<svg width="24" height="24" viewBox="0 0 24 24" fill="none" xmlns="http://www.w3.org/2000/svg">
<path d="M13.3043 3.30455C13.3043 2.58417 12.7204 2.0002 12 2.0002C11.2796 2.0002 10.6957 2.58417 10.6957 3.30455L10.6957 10.6959H3.30435C2.58398 10.6959 2 11.2798 2 12.0002C2 12.7206 2.58398 13.3045 3.30435 13.3045H10.6957V20.6959C10.6957 21.4162 11.2796 22.0002 12 22.0002C12.7204 22.0002 13.3043 21.4162 13.3043 20.6959V13.3045H20.6957C21.416 13.3045 22 12.7206 22 12.0002C22 11.2798 21.416 10.6959 20.6957 10.6959H13.3043V3.30455Z" fill="#757575"/>
</svg>
