<svg width="24" height="24" viewBox="0 0 24 24" fill="none" xmlns="http://www.w3.org/2000/svg">
<path d="M17 11.5C17 10.6716 17.6715 10 18.5 10C19.3284 10 20 10.6716 20 11.5C20 12.3284 19.3284 13 18.5 13C17.6715 13 17 12.3284 17 11.5Z" fill="#757575"/>
<path d="M10 11.5C10 10.6716 10.6715 10 11.5 10C12.3284 10 13 10.6716 13 11.5C13 12.3285 12.3284 13 11.5 13C10.6715 13 10 12.3285 10 11.5Z" fill="#757575"/>
<path d="M3 11.5C3 10.6715 3.67153 10 4.5 10C5.32837 10 6 10.6715 6 11.5C6 12.3285 5.32837 13 4.5 13C3.67153 13 3 12.3285 3 11.5Z" fill="#757575"/>
</svg>
