<svg width="24" height="24" viewBox="0 0 24 24" fill="none" xmlns="http://www.w3.org/2000/svg">
<g clip-path="url(#clip0_1069_9102)">
<path fill-rule="evenodd" clip-rule="evenodd" d="M12 24C18.6274 24 24 18.6274 24 12C24 5.37258 18.6274 0 12 0C5.37258 0 0 5.37258 0 12C0 18.6274 5.37258 24 12 24ZM12 11C13.933 11 15.5 9.433 15.5 7.5C15.5 5.567 13.933 4 12 4C10.067 4 8.5 5.567 8.5 7.5C8.5 9.433 10.067 11 12 11ZM4.57822 18.1186C4.57211 18.2436 4.61443 18.3665 4.69742 18.4603C6.48373 20.478 9.09338 21.75 12.0001 21.75C14.9066 21.75 17.516 20.4782 19.3023 18.4608C19.3853 18.3671 19.4277 18.2442 19.4216 18.1191C19.3818 17.3041 19.2915 16.7229 19.0862 16.2166C18.5782 14.9639 17.5846 14.3746 16.3319 13.8666C15.4281 13.5 14.2854 13.5 11.9999 13.5C9.71439 13.5 8.57165 13.5 7.66782 13.8666C6.41517 14.3746 5.42159 14.9639 4.91356 16.2166C4.70828 16.7227 4.61796 17.3038 4.57822 18.1186Z" fill="#757575"/>
</g>
<defs>
<clipPath id="clip0_1069_9102">
<rect width="24" height="24" fill="white"/>
</clipPath>
</defs>
</svg>
