<svg width="24" height="24" viewBox="0 0 24 24" fill="none" xmlns="http://www.w3.org/2000/svg">
<g clip-path="url(#clip0_1006_8893)">
<path d="M20.9675 3.94904L14.9784 20.6706C14.9069 20.8682 14.7194 20.9999 14.5092 21H14.3495C14.1535 21 13.9749 20.8874 13.8903 20.7105L11.5346 15.719C11.1877 14.9831 11.322 14.1103 11.874 13.5128L14.8686 10.2383C15.0524 10.0455 15.0524 9.74232 14.8686 9.5495L14.4893 9.17015C14.2965 8.98633 13.9933 8.98633 13.8005 9.17015L10.5264 12.165C9.92893 12.7171 9.05625 12.8514 8.32044 12.5045L3.32949 10.1485C3.13702 10.076 3.00706 9.89483 3.00009 9.68926V9.52954C2.98241 9.30492 3.11738 9.09631 3.32949 9.0204L20.0492 3.0306C20.2289 2.96459 20.4306 3.00726 20.5682 3.14042L20.8278 3.39997C20.9838 3.53626 21.0394 3.75475 20.9675 3.94904Z" fill="#757575"/>
</g>
<defs>
<clipPath id="clip0_1006_8893">
<rect width="24" height="24" fill="white"/>
</clipPath>
</defs>
</svg>
