<svg width="24" height="24" viewBox="0 0 24 24" fill="none" xmlns="http://www.w3.org/2000/svg">
<g clip-path="url(#clip0_1922_30032)">
<path d="M21.0001 14.7354L20.2001 14.0741C19.715 13.6707 19.4482 13.0617 19.4801 12.4309C19.4801 12.2906 19.4801 12.1403 19.4801 12C19.4801 11.8597 19.4801 11.7094 19.4801 11.5691C19.4482 10.9383 19.715 10.3293 20.2001 9.92587L21.0001 9.26455C21.3797 8.95612 21.4812 8.41797 21.2401 7.99202L20.0801 5.98803C19.8342 5.56962 19.3243 5.38806 18.8701 5.55717L17.8701 5.91789C17.2799 6.13888 16.6204 6.06834 16.0901 5.72751C15.855 5.56478 15.6076 5.42072 15.3501 5.29665C14.7874 5.0075 14.3943 4.46873 14.2901 3.84376L14.1201 2.84176C14.0409 2.35173 13.6155 1.9937 13.1201 2.00008H10.8201C10.3247 1.9937 9.89931 2.35173 9.82008 2.84176L9.65008 3.84376C9.55457 4.46084 9.17743 4.99804 8.63008 5.29665C8.37258 5.42072 8.12516 5.56478 7.89008 5.72751C7.35979 6.06834 6.70022 6.13888 6.11008 5.91789L5.11008 5.55717C4.66163 5.39911 4.16411 5.57925 3.92008 5.98803L2.76008 7.99202C2.519 8.41797 2.6205 8.95612 3.00008 9.26455L3.80008 9.92587C4.28513 10.3293 4.55195 10.9383 4.52008 11.5691C4.52008 11.7094 4.52008 11.8597 4.52008 12C4.52008 12.1403 4.52008 12.2906 4.52008 12.4309C4.55195 13.0617 4.28513 13.6707 3.80008 14.0741L3.00008 14.7354C2.6205 15.0439 2.519 15.582 2.76008 16.008L3.92008 18.012C4.16595 18.4304 4.67584 18.6119 5.13008 18.4428L6.13008 18.0821C6.72022 17.8611 7.37979 17.9317 7.91008 18.2725C8.14516 18.4352 8.39258 18.5793 8.65008 18.7034C9.21278 18.9925 9.60585 19.5313 9.71008 20.1562L9.88008 21.1582C9.95931 21.6483 10.3847 22.0063 10.8801 21.9999H13.1801C13.6755 22.0063 14.1009 21.6483 14.1801 21.1582L14.3501 20.1562C14.4543 19.5313 14.8474 18.9925 15.4101 18.7034C15.6676 18.5793 15.915 18.4352 16.1501 18.2725C16.6804 17.9317 17.3399 17.8611 17.9301 18.0821L18.9301 18.4428C19.3666 18.5797 19.8402 18.4022 20.0801 18.012L21.2401 16.008C21.4812 15.582 21.3797 15.0439 21.0001 14.7354ZM12.0001 15.006C10.3432 15.006 9.00008 13.6602 9.00008 12C9.00008 10.3398 10.3432 8.99401 12.0001 8.99401C13.6569 8.99401 15.0001 10.3398 15.0001 12C15.0001 12.7972 14.684 13.5618 14.1214 14.1256C13.5588 14.6893 12.7957 15.006 12.0001 15.006Z" fill="#212121"/>
</g>
<defs>
<clipPath id="clip0_1922_30032">
<rect width="24" height="24" fill="white"/>
</clipPath>
</defs>
</svg>
