<svg width="24" height="24" viewBox="0 0 24 24" fill="none" xmlns="http://www.w3.org/2000/svg">
<path fill-rule="evenodd" clip-rule="evenodd" d="M16.9077 19.6774C17.247 19.9743 17.7537 19.9743 18.093 19.6774L20.093 17.9274C20.4671 17.6001 20.505 17.0315 20.1777 16.6574C19.8504 16.2834 19.2818 16.2455 18.9077 16.5728L18.4004 17.0167L18.4004 5.0001C18.4004 4.50304 17.9974 4.1001 17.5004 4.1001C17.0033 4.1001 16.6004 4.50304 16.6004 5.0001L16.6004 17.0167L16.093 16.5728C15.719 16.2455 15.1504 16.2834 14.8231 16.6574C14.4957 17.0315 14.5336 17.6001 14.9077 17.9274L16.9077 19.6774ZM7.09344 4.32288C6.75412 4.02597 6.24745 4.02597 5.90813 4.32288L3.90813 6.07288C3.53406 6.40019 3.49615 6.96878 3.82346 7.34285C4.15078 7.71692 4.71936 7.75483 5.09344 7.42751L5.60078 6.98359L5.60078 19.0002C5.60078 19.4972 6.00373 19.9002 6.50078 19.9002C6.99784 19.9002 7.40078 19.4972 7.40078 19.0002L7.40078 6.98359L7.90813 7.42751C8.2822 7.75483 8.85079 7.71692 9.1781 7.34285C9.50542 6.96878 9.46751 6.40019 9.09344 6.07288L7.09344 4.32288Z" fill="#616161"/>
</svg>
