<svg width="20" height="20" viewBox="0 0 20 20" fill="none" xmlns="http://www.w3.org/2000/svg">
<g clip-path="url(#clip0_1362_9952)">
<path d="M15.5467 8.88831C14.7605 8.90096 13.6804 8.90818 12.4794 8.93348C12.4055 8.93348 12.3334 8.89915 12.2919 8.83772L8.37896 3.0125C8.37896 3.0125 7.58916 1.73146 6.91116 2.05127C6.48921 2.25182 6.49101 2.68366 6.67133 3.39193L8.6837 8.91541C8.71075 8.98949 8.65846 9.06899 8.57912 9.0726L4.77076 9.27497C4.64814 9.2822 4.53093 9.23161 4.45159 9.13765L2.762 7.16279C2.762 7.16279 1.96859 6.27563 1.6909 6.08953C1.31583 5.83838 0.834377 5.98654 1.05617 6.78877C1.44025 8.18184 2.00465 10.2344 2.07137 10.4765C2.07498 10.4928 2.07498 10.5072 2.07137 10.5235C2.00465 10.7656 1.44025 12.8182 1.05617 14.2112C0.834377 15.0135 1.31583 15.1616 1.6909 14.9105C1.96859 14.7262 2.762 13.8372 2.762 13.8372L4.45159 11.8623C4.53093 11.7702 4.64814 11.7196 4.77076 11.725L8.57912 11.9274C8.65846 11.931 8.70895 12.0105 8.6837 12.0846L6.67133 17.6081C6.49282 18.3163 6.48921 18.75 6.91116 18.9487C7.58736 19.2685 8.37716 17.9875 8.37716 17.9875L12.2919 12.1623C12.3334 12.1009 12.4037 12.0647 12.4794 12.0665C13.6804 12.0918 14.7587 12.099 15.5467 12.1117C19.2 12.1731 18.998 10.4982 18.998 10.4982C18.998 10.4982 19.2 8.82507 15.5467 8.88469V8.88831Z" fill="#212121"/>
</g>
<defs>
<clipPath id="clip0_1362_9952">
<rect width="20" height="20" fill="white"/>
</clipPath>
</defs>
</svg>
