<svg width="20" height="20" viewBox="0 0 20 20" fill="none" xmlns="http://www.w3.org/2000/svg">
<g clip-path="url(#clip0_1362_9951)">
<rect x="1.5" y="16" width="17" height="2" rx="0.3" fill="#212121"/>
<path d="M6.27017 9.53727L2.56351 6.181C2.52301 6.14433 2.49999 6.09282 2.5 6.03886L2.50021 4.00449C2.52156 3.76852 2.60748 3.31716 3.02994 3.24032C3.74525 3.11027 4.19769 3.90367 4.34753 4.31782L4.83738 5.57913C4.84885 5.61727 4.87734 5.64906 4.91468 5.66537L8.04288 7.12959C8.10096 7.15496 8.16367 7.11552 8.16224 7.05451L8.15092 6.57265C8.15092 6.57265 8.14727 2.97314 8.14727 2.28666L8.14727 1.00581C8.14727 0.910463 8.21845 0.828344 8.316 0.82657C8.733 0.818987 9.29532 0.978562 9.52563 1.25898C9.90681 1.72311 10.4607 3.23162 10.6642 3.76181L12.4477 8.7096C12.4687 8.76898 12.5147 8.81786 12.5736 8.84352L15.5749 10.1505C17.3106 10.952 17.7606 12.6976 17.3679 13.3936C16.9751 14.0896 16.5978 13.8339 15.4361 13.4081L6.29556 9.55368C6.28627 9.54962 6.27769 9.54407 6.27017 9.53727Z" fill="#212121"/>
</g>
<defs>
<clipPath id="clip0_1362_9951">
<rect width="20" height="20" fill="white"/>
</clipPath>
</defs>
</svg>
