<svg width="20" height="20" viewBox="0 0 20 20" fill="none" xmlns="http://www.w3.org/2000/svg">
<path d="M15.8333 3.33341H15V2.08341C15 1.8533 14.8135 1.66675 14.5833 1.66675H13.75C13.5199 1.66675 13.3333 1.8533 13.3333 2.08341V3.33341H6.66667V2.08341C6.66667 1.8533 6.48012 1.66675 6.25 1.66675H5.41667C5.18655 1.66675 5 1.8533 5 2.08341V3.33341H4.16667C3.24619 3.33341 2.5 4.07961 2.5 5.00008V15.8334C2.5 16.7539 3.24619 17.5001 4.16667 17.5001H15.8333C16.7538 17.5001 17.5 16.7539 17.5 15.8334V5.00008C17.5 4.07961 16.7538 3.33341 15.8333 3.33341ZM15.8333 15.8334H4.16667V6.66675H15.8333V15.8334ZM9.58333 10.0001H10.4167C10.6468 10.0001 10.8333 9.81353 10.8333 9.58341V8.75008C10.8333 8.51996 10.6468 8.33341 10.4167 8.33341H9.58333C9.35321 8.33341 9.16667 8.51996 9.16667 8.75008V9.58341C9.16667 9.81353 9.35321 10.0001 9.58333 10.0001ZM12.9167 10.0001H13.75C13.9801 10.0001 14.1667 9.81353 14.1667 9.58341V8.75008C14.1667 8.51996 13.9801 8.33341 13.75 8.33341H12.9167C12.6865 8.33341 12.5 8.51996 12.5 8.75008V9.58341C12.5 9.81353 12.6865 10.0001 12.9167 10.0001ZM6.25 10.0001H7.08333C7.31345 10.0001 7.5 9.81353 7.5 9.58341V8.75008C7.5 8.51996 7.31345 8.33341 7.08333 8.33341H6.25C6.01988 8.33341 5.83333 8.51996 5.83333 8.75008V9.58341C5.83333 9.81353 6.01988 10.0001 6.25 10.0001ZM9.58333 13.3334H10.4167C10.6468 13.3334 10.8333 13.1469 10.8333 12.9167V12.0834C10.8333 11.8533 10.6468 11.6667 10.4167 11.6667H9.58333C9.35321 11.6667 9.16667 11.8533 9.16667 12.0834V12.9167C9.16667 13.1469 9.35321 13.3334 9.58333 13.3334ZM6.25 13.3334H7.08333C7.31345 13.3334 7.5 13.1469 7.5 12.9167V12.0834C7.5 11.8533 7.31345 11.6667 7.08333 11.6667H6.25C6.01988 11.6667 5.83333 11.8533 5.83333 12.0834V12.9167C5.83333 13.1469 6.01988 13.3334 6.25 13.3334Z" fill="#757575"/>
</svg>
