<svg width="20" height="20" viewBox="0 0 20 20" fill="none" xmlns="http://www.w3.org/2000/svg">
<g clip-path="url(#clip0_1743_28507)">
<rect x="1.5" y="16" width="17" height="2" rx="0.3" fill="#212121"/>
<path d="M9.03155 11.6951L4.27161 13.2271C4.2196 13.2438 4.16348 13.238 4.11676 13.211L2.35505 12.1936C2.16136 12.0572 1.81343 11.7571 1.95812 11.3528C2.20314 10.6683 3.11647 10.6732 3.55005 10.7505L4.88731 10.9569C4.92607 10.9661 4.96785 10.9573 5.00065 10.9331L7.8328 8.9561C7.88381 8.91849 7.88101 8.84446 7.82745 8.8152L7.40449 8.58407C7.40449 8.58407 4.2854 6.78747 3.69089 6.44423L2.58164 5.8038C2.49907 5.75613 2.46354 5.65343 2.51078 5.56806C2.71272 5.20314 3.13207 4.79594 3.49007 4.7367C4.08261 4.63865 5.66599 4.91318 6.22687 5.00208L11.4036 5.93139C11.4655 5.9429 11.5308 5.92756 11.5825 5.88936L14.2149 3.94364C15.7769 2.84125 17.5137 3.32431 17.9201 4.01244C18.3265 4.70057 17.9164 4.89949 16.9668 5.69266L9.05846 11.6814C9.0503 11.6874 9.0412 11.692 9.03155 11.6951Z" fill="#212121"/>
</g>
<defs>
<clipPath id="clip0_1743_28507">
<rect width="20" height="20" fill="white"/>
</clipPath>
</defs>
</svg>
