<svg width="20" height="20" viewBox="0 0 20 20" fill="none" xmlns="http://www.w3.org/2000/svg">
<g clip-path="url(#clip0_1201_12494)">
<path fill-rule="evenodd" clip-rule="evenodd" d="M4.75 2H15.25C16.2165 2 17 2.71634 17 3.6V12.208C16.9994 12.8443 16.7224 13.4543 16.23 13.904L12.52 17.296C12.0282 17.7462 11.361 17.9994 10.665 18H4.75C3.7835 18 3 17.2837 3 16.4V3.6C3 2.71634 3.7835 2 4.75 2ZM15.25 3.6H4.75V16.4H11V12.8C11 12.3582 11.3918 12 11.875 12H15.25V3.6ZM13.5 7.2C13.5 7.42091 13.3041 7.6 13.0625 7.6H6.9375C6.69588 7.6 6.5 7.42091 6.5 7.2V6.4C6.5 6.17909 6.69588 6 6.9375 6H13.0625C13.3041 6 13.5 6.17909 13.5 6.4V7.2ZM10.875 10.4C10.875 10.6209 10.6791 10.8 10.4375 10.8H6.9375C6.69588 10.8 6.5 10.6209 6.5 10.4V9.6C6.5 9.37909 6.69588 9.2 6.9375 9.2H10.4375C10.6791 9.2 10.875 9.37909 10.875 9.6V10.4Z" fill="#757575"/>
</g>
<defs>
<clipPath id="clip0_1201_12494">
<rect width="20" height="20" fill="white"/>
</clipPath>
</defs>
</svg>
