<svg width="20" height="20" viewBox="0 0 20 20" fill="none" xmlns="http://www.w3.org/2000/svg">
<path fill-rule="evenodd" clip-rule="evenodd" d="M10 20C15.5228 20 20 15.5228 20 10C20 4.47715 15.5228 0 10 0C4.47715 0 0 4.47715 0 10C0 15.5228 4.47715 20 10 20ZM5 14.4505V12.3675L11.1436 6.22386L13.2266 8.30691L7.08304 14.4505H5ZM14.8375 5.9128C15.0542 6.12943 15.0542 6.47938 14.8375 6.69602L13.821 7.71255L11.738 5.6295L12.7545 4.61298C12.9711 4.39634 13.3211 4.39634 13.5377 4.61298L14.8375 5.9128Z" fill="#212121"/>
</svg>
