<svg width="12" height="12" viewBox="0 0 12 12" fill="none" xmlns="http://www.w3.org/2000/svg">
<circle cx="6" cy="6" r="6" fill="#212121"/>
<path d="M5.81733 2.40981C5.8878 2.25171 6.1122 2.25171 6.18267 2.40981L7.05807 4.37369C7.08714 4.43889 7.14876 4.48366 7.21975 4.49116L9.35802 4.71684C9.53016 4.73501 9.5995 4.94843 9.47092 5.0643L7.87368 6.50373C7.82064 6.55152 7.79711 6.62396 7.81192 6.6938L8.25805 8.79715C8.29396 8.96648 8.11241 9.09838 7.96247 9.0119L6.09992 7.93763C6.03808 7.90197 5.96192 7.90197 5.90008 7.93763L4.03753 9.0119C3.88759 9.09838 3.70604 8.96648 3.74195 8.79715L4.18808 6.6938C4.20289 6.62396 4.17936 6.55152 4.12632 6.50373L2.52908 5.0643C2.4005 4.94843 2.46984 4.73501 2.64198 4.71684L4.78025 4.49116C4.85124 4.48366 4.91286 4.43889 4.94193 4.37369L5.81733 2.40981Z" fill="white"/>
</svg>
