<svg width="8" height="20" viewBox="0 0 8 20" fill="none" xmlns="http://www.w3.org/2000/svg">
<path d="M4 6C3.44771 6 3 5.55231 3 5C3 4.44775 3.44771 4 4 4C4.55228 4 5 4.44775 5 5C5 5.55231 4.55228 6 4 6Z" fill="#212121"/>
<path d="M4 11C3.44775 11 3 10.5523 3 10C3 9.44775 3.44775 9 4 9C4.55231 9 5 9.44775 5 10C5 10.5523 4.55231 11 4 11Z" fill="#212121"/>
<path d="M4 16C3.44769 16 3 15.5523 3 15C3 14.4478 3.44769 14 4 14C4.55231 14 5 14.4478 5 15C5 15.5523 4.55231 16 4 16Z" fill="#212121"/>
</svg>
