<svg width="20" height="20" viewBox="0 0 20 20" fill="none" xmlns="http://www.w3.org/2000/svg">
    <path fill-rule="evenodd" clip-rule="evenodd"
          d="M10 20C15.5228 20 20 15.5228 20 10C20 4.47715 15.5228 0 10 0C4.47715 0 0 4.47715 0 10C0 15.5228 4.47715 20 10 20ZM6.46381 6.4649C6.81572 6.11299 7.38629 6.11299 7.7382 6.4649L9.99891 8.72561L12.2605 6.46403C12.6124 6.11212 13.183 6.11212 13.5349 6.46403C13.8868 6.81595 13.8868 7.38651 13.5349 7.73843L11.2733 10L13.5349 12.2616C13.8868 12.6135 13.8868 13.1841 13.5349 13.536C13.183 13.8879 12.6124 13.8879 12.2605 13.536L9.99891 11.2744L7.7382 13.5351C7.38629 13.887 6.81572 13.887 6.46381 13.5351C6.1119 13.1832 6.1119 12.6126 6.46381 12.2607L8.72452 10L6.46381 7.73929C6.1119 7.38738 6.1119 6.81681 6.46381 6.4649Z"
          fill="#757575"/>
</svg>