<svg width="16" height="16" viewBox="0 0 16 16" fill="none" xmlns="http://www.w3.org/2000/svg">
    <path d="M4.99887 5C4.99887 3.34315 6.34252 2 8 2C9.65748 2 11.0011 3.34315 11.0011 5C11.0011 6.65685 9.65748 8 8 8C7.20405 8 6.4407 7.68393 5.87788 7.12132C5.31505 6.55871 4.99887 5.79565 4.99887 5ZM13.9197 12.9125L12.8393 10.745C12.4576 9.98063 11.6757 9.49832 10.8211 9.5H5.17893C4.32428 9.49832 3.54241 9.98063 3.16067 10.745L2.08026 12.9125C1.96324 13.1446 1.97481 13.4208 2.11085 13.6423C2.24688 13.8639 2.48797 13.9992 2.74801 14H13.252C13.512 13.9992 13.7531 13.8639 13.8892 13.6423C14.0252 13.4208 14.0368 13.1446 13.9197 12.9125Z"
          fill="#757575"/>
</svg>
