<svg width="20" height="20" viewBox="0 0 20 20" fill="none" xmlns="http://www.w3.org/2000/svg">
    <circle cx="10" cy="10" r="10" fill="#212121"/>
    <path d="M13.657 6.343C13.2665 5.95252 12.6333 5.95252 12.2428 6.343L10 8.58579L7.75723 6.343C7.36675 5.95252 6.73358 5.95252 6.3431 6.343C5.95262 6.73348 5.95262 7.36665 6.3431 7.75713L8.58589 10L6.3431 12.2428C5.95262 12.6333 5.95262 13.2665 6.3431 13.657C6.73358 14.0475 7.36675 14.0475 7.75723 13.657L10 11.4142L12.2428 13.657C12.6333 14.0475 13.2665 14.0475 13.657 13.657C14.0474 13.2665 14.0474 12.6333 13.657 12.2428L11.4142 10L13.657 7.75713C14.0474 7.36665 14.0474 6.73348 13.657 6.343Z"
          fill="white"/>
</svg>
