<svg width="20" height="20" viewBox="0 0 20 20" fill="none" xmlns="http://www.w3.org/2000/svg">
<path fill-rule="evenodd" clip-rule="evenodd" d="M10 20C15.5228 20 20 15.5228 20 10C20 4.47715 15.5228 0 10 0C4.47715 0 0 4.47715 0 10C0 15.5228 4.47715 20 10 20ZM12.3663 6.15025C12.035 5.81759 11.4968 5.81644 11.1642 6.14767C10.8315 6.4789 10.8304 7.01709 11.1616 7.34975L12.9541 9.15H5C4.53056 9.15 4.15 9.53056 4.15 10C4.15 10.4694 4.53056 10.85 5 10.85H12.9541L11.1616 12.6503C10.8304 12.9829 10.8315 13.5211 11.1642 13.8523C11.4968 14.1836 12.035 14.1824 12.3663 13.8497L15.6023 10.5997C15.9326 10.2681 15.9326 9.7319 15.6023 9.40025L12.3663 6.15025Z" fill="#212121"/>
</svg>
