<svg width="20" height="20" viewBox="0 0 20 20" fill="none" xmlns="http://www.w3.org/2000/svg">
<g clip-path="url(#clip0_1016_6891)">
<path d="M10.5 2C6.08172 2 2.5 5.58172 2.5 10C2.5 14.4183 6.08172 18 10.5 18C14.9183 18 18.5 14.4183 18.5 10C18.5 7.87827 17.6571 5.84344 16.1569 4.34315C14.6566 2.84285 12.6217 2 10.5 2ZM10.5 16.4C6.96538 16.4 4.1 13.5346 4.1 10C4.1 6.46538 6.96538 3.6 10.5 3.6C14.0346 3.6 16.9 6.46538 16.9 10C16.9 11.6974 16.2257 13.3253 15.0255 14.5255C13.8253 15.7257 12.1974 16.4 10.5 16.4ZM11.204 9.712V5.6C11.204 5.37909 11.0249 5.2 10.804 5.2H10.196C9.97509 5.2 9.796 5.37909 9.796 5.6V10.128C9.79993 10.233 9.8427 10.3328 9.916 10.408L13.116 13.608C13.2743 13.7614 13.5257 13.7614 13.684 13.608L14.108 13.184C14.2614 13.0257 14.2614 12.7743 14.108 12.616L11.204 9.712Z" fill="#212121"/>
</g>
<defs>
<clipPath id="clip0_1016_6891">
<rect width="20" height="20" fill="white"/>
</clipPath>
</defs>
</svg>
