<svg width="16" height="18" viewBox="0 0 16 18" fill="none" xmlns="http://www.w3.org/2000/svg">
<path d="M8.2375 4.15385C9.125 4.15385 10.2375 3.60458 10.9 2.87222C11.5 2.20852 11.9375 1.28163 11.9375 0.354736C11.9375 0.228861 11.925 0.102988 11.9 0C10.9125 0.0343293 9.725 0.606484 9.0125 1.37317C8.45 1.95677 7.9375 2.87222 7.9375 3.81055C7.9375 3.94787 7.9625 4.08519 7.975 4.13096C8.0375 4.1424 8.1375 4.15385 8.2375 4.15385ZM5.1125 18C6.325 18 6.8625 17.2562 8.375 17.2562C9.9125 17.2562 10.25 17.9771 11.6 17.9771C12.925 17.9771 13.8125 16.8557 14.65 15.7572C15.5875 14.4984 15.975 13.2626 16 13.2053C15.9125 13.1825 13.375 12.2327 13.375 9.56643C13.375 7.25493 15.375 6.2136 15.4875 6.1335C14.1625 4.39415 12.15 4.34838 11.6 4.34838C10.1125 4.34838 8.9 5.17228 8.1375 5.17228C7.3125 5.17228 6.225 4.39415 4.9375 4.39415C2.4875 4.39415 0 6.24793 0 9.74952C0 11.9237 0.925 14.2238 2.0625 15.7114C3.0375 16.9701 3.8875 18 5.1125 18Z" fill="white"/>
</svg>
