<svg width="20" height="20" viewBox="0 0 20 20" fill="none" xmlns="http://www.w3.org/2000/svg">
<g clip-path="url(#clip0_1905_28889)">
<rect x="1.5" y="16" width="17" height="2" rx="0.3" fill="#5E91EE"/>
<path d="M6.27017 9.53714L2.56351 6.18088C2.52301 6.14421 2.49999 6.0927 2.5 6.03874L2.50021 4.00437C2.52156 3.76839 2.60748 3.31703 3.02994 3.2402C3.74525 3.11014 4.19769 3.90355 4.34753 4.31769L4.83738 5.579C4.84885 5.61714 4.87734 5.64894 4.91468 5.66525L8.04288 7.12947C8.10096 7.15484 8.16367 7.1154 8.16224 7.05439L8.15092 6.57253C8.15092 6.57253 8.14727 2.97302 8.14727 2.28653L8.14727 1.00569C8.14727 0.910341 8.21845 0.828222 8.316 0.826448C8.733 0.818865 9.29532 0.97844 9.52563 1.25886C9.90681 1.72299 10.4607 3.2315 10.6642 3.76168L12.4477 8.70948C12.4687 8.76886 12.5147 8.81774 12.5736 8.8434L15.5749 10.1503C17.3106 10.9519 17.7606 12.6975 17.3679 13.3935C16.9751 14.0895 16.5978 13.8338 15.4361 13.408L6.29556 9.55355C6.28627 9.5495 6.27769 9.54395 6.27017 9.53714Z" fill="#5E91EE"/>
</g>
<defs>
<clipPath id="clip0_1905_28889">
<rect width="20" height="20" fill="white"/>
</clipPath>
</defs>
</svg>
