<svg width="18" height="18" viewBox="0 0 18 18" fill="none" xmlns="http://www.w3.org/2000/svg">
<path d="M17.8568 2.29357L10.3623 10.4275C10.2682 10.5251 10.1383 10.5802 10.0026 10.5802C9.86691 10.5802 9.73705 10.5251 9.64287 10.4275L7.55441 8.34162C7.45671 8.24756 7.40151 8.11786 7.40151 7.98233C7.40151 7.8468 7.45671 7.71709 7.55441 7.62304L15.6984 0.137823C15.8914 -0.045941 16.1949 -0.045941 16.3879 0.137823L17.8268 1.57498C17.9286 1.66491 17.9893 1.79233 17.9949 1.9279C18.0006 2.06347 17.9507 2.1955 17.8568 2.29357ZM8.68358 11.9345L6.0755 9.31969C5.9175 9.15394 5.7112 9.04219 5.48593 9.00032C5.32288 8.99009 5.15935 8.99009 4.99629 9.00032C3.93589 8.99949 2.91861 9.41954 2.16838 10.168C0.169848 12.1641 1.69872 14.3498 0.0799138 16.755C-0.0523395 16.9522 -0.0272691 17.2151 0.13987 17.3838C0.649829 17.7749 1.27557 17.9856 1.91856 17.9826C4.10358 18.1291 6.24876 17.3461 7.82421 15.8268C8.57607 15.0751 8.99684 14.055 8.99335 12.9924C8.99335 12.8327 8.99335 12.6631 8.99335 12.5034C8.95627 12.2847 8.84727 12.0845 8.68358 11.9345Z" fill="#757575"/>
</svg>
