<svg width="19" height="15" viewBox="0 0 19 15" fill="none" xmlns="http://www.w3.org/2000/svg">
<path d="M11.93 7.78002C11.93 9.16074 10.8107 10.28 9.43 10.28C8.04929 10.28 6.93 9.16074 6.93 7.78002C6.93 6.39931 8.04929 5.28002 9.43 5.28002C10.8107 5.28002 11.93 6.39931 11.93 7.78002Z" fill="#9E9E9E"/>
<path fill-rule="evenodd" clip-rule="evenodd" d="M14.94 1.23634e-05H4.06C2.98414 -0.00264408 1.95144 0.422878 1.18975 1.18269C0.428064 1.9425 -3.27955e-06 2.97415 0 4.05001V10.95C-3.27955e-06 12.0259 0.428064 13.0575 1.18975 13.8173C1.95144 14.5771 2.98414 15.0027 4.06 15H14.94C16.0159 15.0027 17.0486 14.5771 17.8102 13.8173C18.5719 13.0575 19 12.0259 19 10.95V4.05001C19 2.97415 18.5719 1.9425 17.8102 1.18269C17.0486 0.422878 16.0159 -0.00264408 14.94 1.23634e-05ZM9.43 11.78C7.22086 11.78 5.43 9.98915 5.43 7.78001C5.43 5.57087 7.22086 3.78001 9.43 3.78001C11.6391 3.78001 13.43 5.57087 13.43 7.78001C13.43 8.84088 13.0086 9.85829 12.2584 10.6084C11.5083 11.3586 10.4909 11.78 9.43 11.78ZM14.93 4.78001C15.2061 4.78001 15.43 4.55615 15.43 4.28001V3.28001C15.43 3.00387 15.2061 2.78001 14.93 2.78001H13.93C13.6539 2.78001 13.43 3.00387 13.43 3.28001V4.28001C13.43 4.55615 13.6539 4.78001 13.93 4.78001H14.93Z" fill="#9E9E9E"/>
</svg>
