<svg width="28" height="22" viewBox="0 0 28 22" fill="none" xmlns="http://www.w3.org/2000/svg">
<path d="M17.5811 11.4107C17.5811 13.4357 15.9316 15.0773 13.8968 15.0773C11.8621 15.0773 10.2126 13.4357 10.2126 11.4107C10.2126 9.38564 11.8621 7.74402 13.8968 7.74402C15.9316 7.74402 17.5811 9.38564 17.5811 11.4107Z" fill="#212121"/>
<path fill-rule="evenodd" clip-rule="evenodd" d="M22.0168 1.81329e-05H5.98316C4.39768 -0.00387799 2.8758 0.62022 1.75332 1.73461C0.630832 2.84899 -4.83302e-06 4.36208 0 5.94001V16.06C-4.83302e-06 17.6379 0.630832 19.151 1.75332 20.2654C2.8758 21.3798 4.39768 22.0039 5.98316 22H22.0168C23.6023 22.0039 25.1242 21.3798 26.2467 20.2654C27.3692 19.151 28 17.6379 28 16.06V5.94001C28 4.36208 27.3692 2.84899 26.2467 1.73461C25.1242 0.62022 23.6023 -0.00387799 22.0168 1.81329e-05ZM13.8968 17.2773C10.6413 17.2773 8.0021 14.6507 8.0021 11.4107C8.0021 8.1706 10.6413 5.54401 13.8968 5.54401C17.1524 5.54401 19.7916 8.1706 19.7916 11.4107C19.7916 12.9666 19.1705 14.4588 18.0651 15.559C16.9596 16.6592 15.4602 17.2773 13.8968 17.2773ZM22.0021 7.01067C22.4091 7.01067 22.7389 6.68235 22.7389 6.27734V4.81068C22.7389 4.40567 22.4091 4.07735 22.0021 4.07735H20.5284C20.1215 4.07735 19.7916 4.40567 19.7916 4.81068V6.27734C19.7916 6.68235 20.1215 7.01067 20.5284 7.01067H22.0021Z" fill="#212121"/>
</svg>
