<svg width="24" height="24" viewBox="0 0 24 24" fill="none" xmlns="http://www.w3.org/2000/svg">
<path d="M13.2144 9.88017C12.7959 9.39193 12.5867 9.14781 12.3377 9.05836C12.1191 8.97985 11.8801 8.97985 11.6615 9.05836C11.4125 9.14781 11.2033 9.39193 10.7848 9.88017L8.26355 12.8216C7.54316 13.6621 7.18296 14.0823 7.17414 14.4381C7.16647 14.7473 7.30231 15.0426 7.54206 15.2381C7.81794 15.4629 8.37141 15.4629 9.47836 15.4629H14.5208C15.6278 15.4629 16.1813 15.4629 16.4571 15.2381C16.6969 15.0426 16.8327 14.7473 16.8251 14.4381C16.8162 14.0823 16.456 13.6621 15.7357 12.8216L13.2144 9.88017Z" fill="#212121"/>
</svg>
