<svg width="18" height="18" viewBox="0 0 18 18" fill="none" xmlns="http://www.w3.org/2000/svg">
<path d="M5.65 10.9401L10.94 5.65014C11.0339 5.55548 11.1617 5.50224 11.295 5.50224C11.4283 5.50224 11.5561 5.55548 11.65 5.65014L12.35 6.35014C12.4447 6.44402 12.4979 6.57182 12.4979 6.70514C12.4979 6.83846 12.4447 6.96625 12.35 7.06014L7.06 12.3501C6.96612 12.4448 6.83832 12.498 6.705 12.498C6.57168 12.498 6.44389 12.4448 6.35 12.3501L5.65 11.6501C5.55534 11.5563 5.5021 11.4285 5.5021 11.2951C5.5021 11.1618 5.55534 11.034 5.65 10.9401ZM18 4.66014V5.00014C18.0008 6.06623 17.5761 7.08855 16.82 7.84014L14 10.6701C13.4739 11.1912 12.6261 11.1912 12.1 10.6701L12 10.5601C11.8094 10.3657 11.8094 10.0546 12 9.86014L15.44 6.42014C15.8071 6.03945 16.0084 5.52889 16 5.00014V4.66014C16.0004 4.12709 15.788 3.61593 15.41 3.24014L14.76 2.59014C14.3842 2.2121 13.873 1.99972 13.34 2.00014H13C12.467 1.99972 11.9558 2.2121 11.58 2.59014L8.14 6.00014C7.94558 6.19071 7.63442 6.19071 7.44 6.00014L7.33 5.89014C6.80889 5.364 6.80889 4.51628 7.33 3.99014L10.16 1.15014C10.9165 0.405054 11.9382 -0.00866787 13 0.000137737H13.34C14.4012 -0.000696723 15.4192 0.420183 16.17 1.17014L16.83 1.83014C17.58 2.58093 18.0008 3.59895 18 4.66014ZM9.86 12.0001C10.0544 11.8096 10.3656 11.8096 10.56 12.0001L10.67 12.1101C11.1911 12.6363 11.1911 13.484 10.67 14.0101L7.82 16.8601C7.06679 17.5967 6.05344 18.0063 5 18.0001H4.66C3.59882 18.001 2.58079 17.5801 1.83 16.8301L1.17 16.1701C0.422494 15.4218 0.00181506 14.4079 1.25758e-06 13.3501V13.0001C-0.000843492 11.934 0.423922 10.9117 1.18 10.1601L4 7.33014C4.52614 6.80903 5.37386 6.80903 5.9 7.33014L6.01 7.44014C6.20057 7.63456 6.20057 7.94572 6.01 8.14014L2.59 11.5801C2.21196 11.9559 1.99958 12.4671 2 13.0001V13.3401C1.99958 13.8732 2.21196 14.3843 2.59 14.7601L3.24 15.4101C3.6158 15.7882 4.12696 16.0006 4.66 16.0001H5C5.53651 16.0032 6.05177 15.7906 6.43 15.4101L9.86 12.0001Z" fill="#BDBDBD"/>
</svg>
