<svg width="24" height="24" viewBox="0 0 24 24" fill="none" xmlns="http://www.w3.org/2000/svg">
<g clip-path="url(#clip0_1404_12395)">
<path fill-rule="evenodd" clip-rule="evenodd" d="M20.2607 12.5401C20.1592 12.7848 19.8555 12.8682 19.6482 12.7083L16.212 10.0574C15.9511 9.85616 16.0359 9.43886 16.3556 9.35113L18.0007 8.89954C16.5545 5.83027 13.1765 4.17258 9.9235 5.06552C8.05227 5.57917 6.5634 6.83753 5.67711 8.46403C5.41126 8.9519 4.80486 9.13471 4.32268 8.87234C3.84049 8.60997 3.66512 8.00177 3.93096 7.5139C5.06529 5.43222 6.98752 3.79762 9.41742 3.13061C13.7784 1.93353 18.2155 4.26274 19.955 8.36309L21.4737 7.9462C21.7933 7.85847 22.0704 8.17642 21.9427 8.48436L20.2607 12.5401ZM3.73919 11.4597C3.84067 11.215 4.14443 11.1317 4.35174 11.2916L7.78788 13.9424C8.04878 14.1437 7.96398 14.561 7.64435 14.6487L5.99925 15.1003C7.44543 18.1696 10.8234 19.8273 14.0764 18.9343C15.9476 18.4207 17.4365 17.1623 18.3228 15.5358C18.5887 15.048 19.1951 14.8652 19.6772 15.1275C20.1594 15.3899 20.3348 15.9981 20.069 16.486C18.9346 18.5677 17.0124 20.2023 14.5825 20.8693C10.2215 22.0663 5.7844 19.7371 4.04494 15.6368L2.52623 16.0537C2.2066 16.1414 1.9295 15.8235 2.05721 15.5155L3.73919 11.4597Z" fill="#757575"/>
</g>
<defs>
<clipPath id="clip0_1404_12395">
<rect width="24" height="24" fill="white"/>
</clipPath>
</defs>
</svg>
