<svg width="24" height="24" viewBox="0 0 24 24" fill="none" xmlns="http://www.w3.org/2000/svg">
<path d="M0.5 4C0.5 2.067 2.067 0.5 4 0.5H20C21.933 0.5 23.5 2.067 23.5 4V20C23.5 21.933 21.933 23.5 20 23.5H4C2.067 23.5 0.5 21.933 0.5 20V4Z" fill="#BDBDBD"/>
<path d="M0.5 4C0.5 2.067 2.067 0.5 4 0.5H20C21.933 0.5 23.5 2.067 23.5 4V20C23.5 21.933 21.933 23.5 20 23.5H4C2.067 23.5 0.5 21.933 0.5 20V4Z" stroke="#EEEEEE"/>
<path d="M7 11.5614L9.46643 14.2269C9.85538 14.6472 10.5172 14.6557 10.9168 14.2455L17 8" stroke="white" stroke-width="2" stroke-linecap="round" stroke-linejoin="round"/>
</svg>
