<svg width="24" height="24" viewBox="0 0 24 24" fill="none" xmlns="http://www.w3.org/2000/svg">
<path fill-rule="evenodd" clip-rule="evenodd" d="M19.7521 5.45104C20.0841 5.11909 20.0841 4.5809 19.7521 4.24896C19.4202 3.91701 18.882 3.91701 18.5501 4.24896L12.0006 10.7985L5.60104 4.39896C5.2691 4.06701 4.73091 4.06701 4.39896 4.39896C4.06701 4.7309 4.06701 5.26909 4.39896 5.60104L10.7985 12.0006L4.24896 18.5501C3.91701 18.882 3.91701 19.4202 4.24896 19.7522C4.58091 20.0841 5.1191 20.0841 5.45104 19.7522L12.0006 13.2026L18.7001 19.9022C19.032 20.2341 19.5702 20.2341 19.9021 19.9022C20.2341 19.5702 20.2341 19.032 19.9021 18.7001L13.2026 12.0006L19.7521 5.45104Z" fill="#BDBDBD"/>
</svg>
