<svg width="28" height="28" viewBox="0 0 28 28" fill="none" xmlns="http://www.w3.org/2000/svg">
<path fill-rule="evenodd" clip-rule="evenodd" d="M5.5 3.5C4.39543 3.5 3.5 4.39543 3.5 5.5V18.3C3.5 19.4046 4.39543 20.3 5.5 20.3H18.3C19.4046 20.3 20.3 19.4046 20.3 18.3V5.5C20.3 4.39543 19.4046 3.5 18.3 3.5H5.5ZM7.69989 22.5V22.4H20.3999C21.5045 22.4 22.3999 21.5046 22.3999 20.4V7.70003H22.4999C23.6045 7.70003 24.4999 8.59546 24.4999 9.70003V22.5C24.4999 23.6046 23.6045 24.5 22.4999 24.5H9.69989C8.59532 24.5 7.69989 23.6046 7.69989 22.5Z" fill="#212121"/>
</svg>
