<svg width="20" height="20" viewBox="0 0 20 20" fill="none" xmlns="http://www.w3.org/2000/svg">
<g clip-path="url(#clip0_1905_21512)">
<rect x="1.5" y="16" width="17" height="2" rx="0.3" fill="#5E91EE"/>
<path d="M9.03155 11.6949L4.27161 13.2269C4.2196 13.2436 4.16348 13.2378 4.11676 13.2108L2.35505 12.1934C2.16136 12.057 1.81343 11.7569 1.95812 11.3526C2.20314 10.6681 3.11647 10.673 3.55005 10.7503L4.88731 10.9567C4.92607 10.9658 4.96785 10.9571 5.00065 10.9329L7.8328 8.95589C7.88381 8.91828 7.88101 8.84425 7.82745 8.81498L7.40449 8.58385C7.40449 8.58385 4.2854 6.78726 3.69089 6.44401L2.58164 5.80359C2.49907 5.75592 2.46354 5.65322 2.51078 5.56785C2.71272 5.20292 3.13207 4.79573 3.49007 4.73649C4.08261 4.63844 5.66599 4.91297 6.22687 5.00187L11.4036 5.93118C11.4655 5.94269 11.5308 5.92735 11.5825 5.88915L14.2149 3.94343C15.7769 2.84104 17.5137 3.32409 17.9201 4.01223C18.3265 4.70036 17.9164 4.89928 16.9668 5.69244L9.05846 11.6812C9.0503 11.6872 9.0412 11.6918 9.03155 11.6949Z" fill="#5E91EE"/>
</g>
<defs>
<clipPath id="clip0_1905_21512">
<rect width="20" height="20" fill="white"/>
</clipPath>
</defs>
</svg>
