<svg width="3" height="17" viewBox="0 0 3 17" fill="none" xmlns="http://www.w3.org/2000/svg">
<path d="M1.5 14C0.671569 14 0 14.6715 0 15.5C0 16.3284 0.671569 17 1.5 17C2.32842 17 3 16.3284 3 15.5C3 14.6715 2.32842 14 1.5 14Z" fill="#BDBDBD"/>
<path d="M1.5 7C0.671625 7 0 7.67153 0 8.5C0 9.32837 0.671625 10 1.5 10C2.32847 10 3 9.32837 3 8.5C3 7.67153 2.32847 7 1.5 7Z" fill="#BDBDBD"/>
<path d="M1.5 0C0.67153 0 0 0.671531 0 1.5C0 2.32837 0.67153 3 1.5 3C2.32847 3 3 2.32837 3 1.5C3 0.671531 2.32847 0 1.5 0Z" fill="#BDBDBD"/>
</svg>
