<svg width="12" height="3" viewBox="0 0 12 3" fill="none" xmlns="http://www.w3.org/2000/svg">
<path d="M2 1.5C2 0.947712 1.55231 0.5 1 0.5C0.44775 0.5 1.85108e-08 0.947712 1.19249e-08 1.5C5.339e-09 2.05228 0.44775 2.5 1 2.5C1.55231 2.5 2 2.05228 2 1.5Z" fill="#BDBDBD"/>
<path d="M7 1.5C7 0.94775 6.55231 0.5 6 0.5C5.44775 0.5 5 0.94775 5 1.5C5 2.05231 5.44775 2.5 6 2.5C6.55231 2.5 7 2.05231 7 1.5Z" fill="#BDBDBD"/>
<path d="M12 1.5C12 0.947687 11.5523 0.5 11 0.5C10.4478 0.5 10 0.947687 10 1.5C10 2.05231 10.4478 2.5 11 2.5C11.5523 2.5 12 2.05231 12 1.5Z" fill="#BDBDBD"/>
</svg>
