<svg width="320" height="510" viewBox="0 0 320 510" fill="none" xmlns="http://www.w3.org/2000/svg">
<mask id="path-1-outside-1_414_403" maskUnits="userSpaceOnUse" x="0" y="0" width="320" height="510" fill="black">
<rect fill="white" width="320" height="510"/>
<path fill-rule="evenodd" clip-rule="evenodd" d="M1 5C1 2.79086 2.79086 1 5 1H315C317.209 1 319 2.79086 319 5V280.557C310.219 280.557 303.1 287.322 303.1 295.668C303.1 304.013 310.219 310.779 319 310.779V505C319 507.209 317.209 509 315 509H5C2.79086 509 1 507.209 1 505V310.779C9.78133 310.779 16.9 304.013 16.9 295.668C16.9 287.322 9.78133 280.557 1 280.557V5Z"/>
</mask>
<path fill-rule="evenodd" clip-rule="evenodd" d="M1 5C1 2.79086 2.79086 1 5 1H315C317.209 1 319 2.79086 319 5V280.557C310.219 280.557 303.1 287.322 303.1 295.668C303.1 304.013 310.219 310.779 319 310.779V505C319 507.209 317.209 509 315 509H5C2.79086 509 1 507.209 1 505V310.779C9.78133 310.779 16.9 304.013 16.9 295.668C16.9 287.322 9.78133 280.557 1 280.557V5Z" fill="#FAFAFA"/>
<path d="M319 280.557V281.557H320V280.557H319ZM319 310.779H320V309.779H319V310.779ZM1 310.779V309.779H0V310.779H1ZM1 280.557H0V281.557H1V280.557ZM5 0C2.23858 0 0 2.23857 0 5H2C2 3.34314 3.34315 2 5 2V0ZM315 0H5V2H315V0ZM320 5C320 2.23858 317.761 0 315 0V2C316.657 2 318 3.34315 318 5H320ZM320 280.557V5H318V280.557H320ZM304.1 295.668C304.1 287.922 310.722 281.557 319 281.557V279.557C309.715 279.557 302.1 286.722 302.1 295.668H304.1ZM319 309.779C310.722 309.779 304.1 303.414 304.1 295.668H302.1C302.1 304.613 309.715 311.779 319 311.779V309.779ZM320 505V310.779H318V505H320ZM315 510C317.761 510 320 507.761 320 505H318C318 506.657 316.657 508 315 508V510ZM5 510H315V508H5V510ZM0 505C0 507.761 2.23857 510 5 510V508C3.34314 508 2 506.657 2 505H0ZM0 310.779V505H2V310.779H0ZM15.9 295.668C15.9 303.414 9.2776 309.779 1 309.779V311.779C10.285 311.779 17.9 304.613 17.9 295.668H15.9ZM1 281.557C9.2776 281.557 15.9 287.922 15.9 295.668H17.9C17.9 286.722 10.285 279.557 1 279.557V281.557ZM0 5V280.557H2V5H0Z" fill="#EEEEEE" mask="url(#path-1-outside-1_414_403)"/>
<path d="M1 310.779V505C1 507.209 2.77966 509 4.975 509H315.025C317.22 509 319 507.209 319 505V310.779C310.691 310.779 303.871 304.722 303.161 297H160H16.839C16.1292 304.722 9.30887 310.779 1 310.779Z" fill="#5E91EE"/>
<path d="M18 297H302" stroke="#EEEEEE" stroke-dasharray="2 2"/>
</svg>
