<svg width="16" height="16" viewBox="0 0 16 16" fill="none" xmlns="http://www.w3.org/2000/svg">
<path fill-rule="evenodd" clip-rule="evenodd" d="M15.68 8.18226C15.68 7.61499 15.6291 7.06953 15.5345 6.5459H8V9.64044H12.3055C12.12 10.6404 11.5564 11.4877 10.7091 12.055V14.0623H13.2945C14.8073 12.6695 15.68 10.6186 15.68 8.18226Z" fill="#4285F4"/>
<path fill-rule="evenodd" clip-rule="evenodd" d="M8.00017 15.9995C10.1602 15.9995 11.9711 15.2832 13.2947 14.0613L10.7093 12.0541C9.99289 12.5341 9.07653 12.8177 8.00017 12.8177C5.91653 12.8177 4.15289 11.4104 3.5238 9.51953H0.851074V11.5923C2.16744 14.2068 4.87289 15.9995 8.00017 15.9995Z" fill="#34A853"/>
<path fill-rule="evenodd" clip-rule="evenodd" d="M3.52364 9.51995C3.36364 9.03995 3.27273 8.52723 3.27273 7.99995C3.27273 7.47268 3.36364 6.95995 3.52364 6.47995V4.40723H0.850909C0.309091 5.48723 0 6.70904 0 7.99995C0 9.29086 0.309091 10.5127 0.850909 11.5927L3.52364 9.51995Z" fill="#FBBC05"/>
<path fill-rule="evenodd" clip-rule="evenodd" d="M8.00017 3.18182C9.17471 3.18182 10.2293 3.58545 11.0583 4.37818L13.3529 2.08364C11.9674 0.792727 10.1565 0 8.00017 0C4.87289 0 2.16744 1.79273 0.851074 4.40727L3.5238 6.48C4.15289 4.58909 5.91653 3.18182 8.00017 3.18182Z" fill="#EA4335"/>
</svg>
