<svg width="36" height="36" viewBox="0 0 36 36" fill="none" xmlns="http://www.w3.org/2000/svg">
<path d="M36 7.5C36 5.567 34.3882 4 32.4 4H3.6C1.61177 4 0 5.567 0 7.5V28.5C0 30.433 1.61177 32 3.6 32H32.4C34.3882 32 36 30.433 36 28.5V7.5ZM13.5 9.25C14.9912 9.25 16.2 10.4253 16.2 11.875C16.2 13.3247 14.9912 14.5 13.5 14.5C12.0088 14.5 10.8 13.3247 10.8 11.875C10.8 10.4253 12.0088 9.25 13.5 9.25ZM30.6 25.875C30.6 26.3582 30.1971 26.75 29.7 26.75H6.3C5.80294 26.75 5.4 26.3582 5.4 25.875V25.28C5.39935 25.0876 5.46959 24.9014 5.598 24.755L10.8 18.3325C10.9563 18.1448 11.1829 18.0252 11.43 18C11.7008 17.997 11.9587 18.1127 12.132 18.315L14.742 21.3775C14.9097 21.5771 15.1609 21.6928 15.426 21.6925C15.7086 21.6898 15.9742 21.5607 16.146 21.3425L21.33 14.8325C21.5041 14.6185 21.7693 14.4937 22.05 14.4937C22.3307 14.4937 22.5959 14.6185 22.77 14.8325L30.42 24.755C30.5357 24.907 30.5987 25.0909 30.6 25.28V25.875Z" fill="#EEEEEE"/>
</svg>
