<svg width="38" height="33" viewBox="0 0 38 33" fill="none" xmlns="http://www.w3.org/2000/svg">
<path d="M32 11.125C32 9.39911 30.5673 8 28.8 8H3.2C1.43269 8 0 9.39911 0 11.125V29.875C0 31.6009 1.43269 33 3.2 33H28.8C30.5673 33 32 31.6009 32 29.875V11.125ZM12 12.6875C13.3255 12.6875 14.4 13.7368 14.4 15.0312C14.4 16.3257 13.3255 17.375 12 17.375C10.6745 17.375 9.6 16.3257 9.6 15.0312C9.6 13.7368 10.6745 12.6875 12 12.6875ZM27.2 27.5312C27.2 27.9627 26.8418 28.3125 26.4 28.3125H5.6C5.15817 28.3125 4.8 27.9627 4.8 27.5312V27C4.79943 26.8282 4.86186 26.6619 4.976 26.5312L9.6 20.7969C9.73893 20.6293 9.94039 20.5225 10.16 20.5C10.4007 20.4973 10.6299 20.6006 10.784 20.7812L13.104 23.5156C13.2531 23.6938 13.4763 23.7971 13.712 23.7969C13.9632 23.7945 14.1993 23.6792 14.352 23.4844L18.96 17.6719C19.1148 17.4808 19.3505 17.3694 19.6 17.3694C19.8495 17.3694 20.0852 17.4808 20.24 17.6719L27.04 26.5312C27.1428 26.667 27.1989 26.8311 27.2 27V27.5312Z" fill="#757575"/>
<circle cx="30" cy="8" r="8" fill="#EEEEEE"/>
<path fill-rule="evenodd" clip-rule="evenodd" d="M31 4C31 3.44772 30.5523 3 30 3C29.4477 3 29 3.44772 29 4V7H26C25.4477 7 25 7.44771 25 8C25 8.55228 25.4477 9 26 9H29V12C29 12.5523 29.4477 13 30 13C30.5523 13 31 12.5523 31 12V9H34C34.5523 9 35 8.55228 35 8C35 7.44772 34.5523 7 34 7H31V4Z" fill="#757575"/>
</svg>
