<svg width="12" height="20" viewBox="0 0 12 20" fill="none" xmlns="http://www.w3.org/2000/svg">
<path d="M3.81755 8.99307C3.36431 9.33995 3.13769 9.51339 3.05466 9.71978C2.98178 9.90093 2.98178 10.0991 3.05466 10.2802C3.13769 10.4866 3.36431 10.6601 3.81755 11.0069L6.54811 13.0967C7.32831 13.6939 7.71841 13.9924 8.04868 13.9997C8.33571 14.0061 8.60989 13.8935 8.79128 13.6948C9 13.4661 9 13.0073 9 12.0898L9 7.91018C9 6.99265 9 6.53389 8.79128 6.30522C8.60989 6.1065 8.33571 5.9939 8.04868 6.00026C7.71841 6.00757 7.32831 6.30613 6.54811 6.90325L3.81755 8.99307Z" fill="#212121"/>
</svg>
