<svg width="24" height="24" viewBox="0 0 24 24" fill="none" xmlns="http://www.w3.org/2000/svg">
<g clip-path="url(#clip0_1006_8881)">
<path d="M8.65 13.94L13.94 8.64998C14.0339 8.55533 14.1617 8.50209 14.295 8.50209C14.4283 8.50209 14.5561 8.55533 14.65 8.64998L15.35 9.34999C15.4447 9.44387 15.4979 9.57167 15.4979 9.70499C15.4979 9.8383 15.4447 9.9661 15.35 10.06L10.06 15.35C9.96612 15.4446 9.83832 15.4979 9.705 15.4979C9.57168 15.4979 9.44389 15.4446 9.35 15.35L8.65 14.65C8.55534 14.5561 8.5021 14.4283 8.5021 14.295C8.5021 14.1617 8.55534 14.0339 8.65 13.94ZM21 7.65999V7.99999C21.0008 9.06607 20.5761 10.0884 19.82 10.84L17 13.67C16.4739 14.1911 15.6261 14.1911 15.1 13.67L15 13.56C14.8094 13.3656 14.8094 13.0544 15 12.86L18.44 9.41999C18.8071 9.0393 19.0084 8.52874 19 7.99999V7.65999C19.0004 7.12694 18.788 6.61578 18.41 6.23998L17.76 5.58999C17.3842 5.21195 16.873 4.99956 16.34 4.99999H16C15.467 4.99956 14.9558 5.21195 14.58 5.58999L11.14 8.99999C10.9456 9.19056 10.6344 9.19056 10.44 8.99999L10.33 8.88999C9.80889 8.36385 9.80889 7.51612 10.33 6.98998L13.16 4.14999C13.9165 3.4049 14.9382 2.99118 16 2.99999H16.34C17.4012 2.99915 18.4192 3.42003 19.17 4.16999L19.83 4.82999C20.58 5.58077 21.0008 6.5988 21 7.65999ZM12.86 15C13.0544 14.8094 13.3656 14.8094 13.56 15L13.67 15.11C14.1911 15.6361 14.1911 16.4838 13.67 17.01L10.82 19.86C10.0668 20.5965 9.05344 21.0062 8 21H7.66C6.59882 21.0008 5.58079 20.5799 4.83 19.83L4.17 19.17C3.42249 18.4216 3.00182 17.4077 3 16.35V16C2.99916 14.9339 3.42392 13.9116 4.18 13.16L7 10.33C7.52614 9.80887 8.37386 9.80887 8.9 10.33L9.01 10.44C9.20057 10.6344 9.20057 10.9456 9.01 11.14L5.59 14.58C5.21196 14.9558 4.99958 15.4669 5 16V16.34C4.99958 16.873 5.21196 17.3842 5.59 17.76L6.24 18.41C6.6158 18.788 7.12696 19.0004 7.66 19H8C8.53651 19.0031 9.05177 18.7905 9.43 18.41L12.86 15Z" fill="#757575"/>
</g>
<defs>
<clipPath id="clip0_1006_8881">
<rect width="24" height="24" fill="white"/>
</clipPath>
</defs>
</svg>
