<svg width="24" height="24" viewBox="0 0 24 24" fill="none" xmlns="http://www.w3.org/2000/svg">
<g clip-path="url(#clip0_1965_34680)">
<path d="M8.65 13.9399L13.94 8.64989C14.0339 8.55524 14.1617 8.50199 14.295 8.50199C14.4283 8.50199 14.5561 8.55524 14.65 8.64989L15.35 9.34989C15.4447 9.44378 15.4979 9.57157 15.4979 9.70489C15.4979 9.83821 15.4447 9.96601 15.35 10.0599L10.06 15.3499C9.96612 15.4445 9.83832 15.4978 9.705 15.4978C9.57168 15.4978 9.44389 15.4445 9.35 15.3499L8.65 14.6499C8.55534 14.556 8.5021 14.4282 8.5021 14.2949C8.5021 14.1616 8.55534 14.0338 8.65 13.9399ZM21 7.65989V7.99989C21.0008 9.06598 20.5761 10.0883 19.82 10.8399L17 13.6699C16.4739 14.191 15.6261 14.191 15.1 13.6699L15 13.5599C14.8094 13.3655 14.8094 13.0543 15 12.8599L18.44 9.41989C18.8071 9.03921 19.0084 8.52865 19 7.99989V7.65989C19.0004 7.12685 18.788 6.61569 18.41 6.23989L17.76 5.58989C17.3842 5.21185 16.873 4.99947 16.34 4.99989H16C15.467 4.99947 14.9558 5.21185 14.58 5.58989L11.14 8.99989C10.9456 9.19046 10.6344 9.19046 10.44 8.99989L10.33 8.88989C9.80889 8.36375 9.80889 7.51603 10.33 6.98989L13.16 4.14989C13.9165 3.40481 14.9382 2.99109 16 2.99989H16.34C17.4012 2.99906 18.4192 3.41994 19.17 4.16989L19.83 4.82989C20.58 5.58068 21.0008 6.59871 21 7.65989ZM12.86 14.9999C13.0544 14.8093 13.3656 14.8093 13.56 14.9999L13.67 15.1099C14.1911 15.636 14.1911 16.4838 13.67 17.0099L10.82 19.8599C10.0668 20.5964 9.05344 21.0061 8 20.9999H7.66C6.59882 21.0007 5.58079 20.5798 4.83 19.8299L4.17 19.1699C3.42249 18.4216 3.00182 17.4076 3 16.3499V15.9999C2.99916 14.9338 3.42392 13.9115 4.18 13.1599L7 10.3299C7.52614 9.80878 8.37386 9.80878 8.9 10.3299L9.01 10.4399C9.20057 10.6343 9.20057 10.9455 9.01 11.1399L5.59 14.5799C5.21196 14.9557 4.99958 15.4668 5 15.9999V16.3399C4.99958 16.8729 5.21196 17.3841 5.59 17.7599L6.24 18.4099C6.6158 18.7879 7.12696 19.0003 7.66 18.9999H8C8.53651 19.003 9.05177 18.7904 9.43 18.4099L12.86 14.9999Z" fill="#757575"/>
</g>
<defs>
<clipPath id="clip0_1965_34680">
<rect width="24" height="24" fill="white"/>
</clipPath>
</defs>
</svg>
