<svg width="54" height="67" viewBox="0 0 54 67" fill="none" xmlns="http://www.w3.org/2000/svg">
<path d="M51.0463 7.54678V46.3735C51.0463 46.7313 51.485 46.9036 51.7285 46.6414L53.3479 44.8975C53.7536 44.4606 53.9791 43.8863 53.9791 43.2901V7.48063C53.9791 3.34919 50.6299 0 46.4985 0H12.3971C10.8079 0 9.23613 0.331773 7.78247 0.97409L1.52919 3.73717C0.759629 4.07721 0.228999 4.80087 0.136089 5.63706C0.0471816 6.43723 0.173241 7.25381 0.545656 7.96759C1.19381 9.20986 1.7232 9.76393 3.00649 9.39137L6.01421 8.51816C6.37408 8.41368 6.64216 8.11211 6.70377 7.74248C6.92212 6.43237 7.79251 5.32359 9.01331 4.80039L10.1789 4.30083C11.2431 3.84477 12.3888 3.60961 13.5465 3.60961H47.1091C49.2836 3.60961 51.0463 5.37234 51.0463 7.54678Z" fill="#212121"/>
<path d="M0.0607501 63.7351V54.476C0.0607501 53.1713 1.11839 52.1137 2.42305 52.1137H10.2933C12.3069 52.1137 13.3973 54.4717 12.0932 56.0059L4.22298 65.265C2.79945 66.9398 0.0607501 65.9331 0.0607501 63.7351Z" fill="#212121"/>
<path d="M0.0607516 6.54247H39.1601C41.9869 6.54247 44.2785 8.83402 44.2785 11.6608V51.5075C44.2785 54.3342 41.9869 56.6258 39.1601 56.6258H0.0607516V6.54247Z" fill="#212121"/>
<path fill-rule="evenodd" clip-rule="evenodd" d="M15.7238 20.8669C12.7266 20.8669 10.2969 23.2967 10.2969 26.2939C10.2969 28.4322 11.5336 30.2817 13.3308 31.166C17.1656 31.4927 19.2714 30.9403 20.5469 30.1433C21.0587 29.8234 21.0121 29.1103 20.5337 28.7423L18.945 27.52C18.4244 27.1195 18.5626 26.3 19.1857 26.0924C19.3489 26.038 19.5252 26.0364 19.6894 26.0877L24.0068 27.4367C25.8348 25.8372 28.4817 25.6282 29.1481 26.0091C29.3373 27.3334 27.5816 28.6832 26.3774 29.3787C25.9959 29.5991 25.7604 30.0201 25.8186 30.4569L26.2312 33.5517C26.2687 33.8327 26.1514 34.112 25.9247 34.282C25.5256 34.5813 24.9522 34.4365 24.7432 33.9836L23.7826 31.9023C23.5813 31.4661 23.0933 31.227 22.6441 31.3972C19.6543 32.53 18.9153 35.2802 18.9142 36.6001C18.9142 36.6011 18.9142 36.6021 18.9142 36.6031L18.9142 38.6636C18.9142 41.664 21.3465 44.0963 24.3469 44.0963C27.3472 44.0963 29.7795 41.664 29.7795 38.6636V31.7208H32.8615C35.8587 31.7208 38.2884 29.2911 38.2884 26.2939C38.2884 23.2967 35.8587 20.8669 32.8615 20.8669H15.7238Z" fill="white"/>
<path d="M48.4873 11.4177H52.8182C53.4705 11.4177 53.9993 11.9465 53.9993 12.5989V19.6858C53.9993 20.3381 53.4705 20.8669 52.8182 20.8669H48.4873V11.4177Z" fill="#5E91EE"/>
<path d="M48.4873 17.7172H52.8182C53.4705 17.7172 53.9993 18.246 53.9993 18.8984V25.9853C53.9993 26.6376 53.4705 27.1664 52.8182 27.1664H48.4873V17.7172Z" fill="#FF565C"/>
<path d="M48.4873 24.8041H52.8182C53.4705 24.8041 53.9993 25.3329 53.9993 25.9853V33.0722C53.9993 33.7245 53.4705 34.2533 52.8182 34.2533H48.4873V24.8041Z" fill="#F4DC59"/>
<path d="M48.4873 31.891H52.8182C53.4705 31.891 53.9993 32.4198 53.9993 33.0722V38.1905C53.9993 38.8428 53.4705 39.3716 52.8182 39.3716H48.4873V31.891Z" fill="#83CF75"/>
</svg>
