<svg width="24" height="24" viewBox="0 0 24 24" fill="none" xmlns="http://www.w3.org/2000/svg">
<path d="M20.5 3.00003H20.2C19.936 2.9987 19.6743 3.04968 19.43 3.15003L15 5.00003L10.75 3.23003C10.3855 3.07845 9.99474 3.00029 9.60001 3.00003H8.40001C8.00528 3.00029 7.61448 3.07845 7.25001 3.23003L3.62001 4.74002C3.24322 4.89481 2.99797 5.26268 3.00001 5.67003V20.5C3.00001 20.7762 3.22387 21 3.50001 21H3.80001C4.06406 21.0013 4.32576 20.9504 4.57001 20.85L9.00001 19L13.25 20.77C13.6145 20.9216 14.0053 20.9998 14.4 21H15.6C15.9947 20.9998 16.3855 20.9216 16.75 20.77L20.38 19.26C20.7568 19.1052 21.0021 18.7374 21 18.33V3.50003C21 3.22388 20.7762 3.00003 20.5 3.00003ZM14 18.92L9.77001 17.15L9.00001 16.83V5.00003H9.60001C9.73069 5.00161 9.85979 5.02878 9.98001 5.08002L14.23 6.85002L15 7.17002V19.0001L14.4 19C14.2626 19.0011 14.1264 18.9739 14 18.92Z" fill="#212121"/>
</svg>
