<svg width="20" height="24" viewBox="0 0 20 24" fill="none" xmlns="http://www.w3.org/2000/svg">
<path fill-rule="evenodd" clip-rule="evenodd" d="M2.3294 3.57709C4.33059 1.19836 7.16687 0 10 0C12.8328 0 15.6573 1.18597 17.671 3.57751C21.149 7.70746 20.609 13.8008 16.8682 17.5502L16.8668 17.5516C14.744 19.6717 12.3012 22.2485 11.2764 23.3297C11.2065 23.4034 11.1432 23.4701 11.0871 23.5293C10.498 24.1569 9.50208 24.1569 8.91298 23.5293C8.85683 23.4701 8.79354 23.4034 8.72366 23.3297C7.69881 22.2486 5.256 19.6717 3.13317 17.5516L3.13178 17.5502C-0.608096 13.8017 -1.14994 7.69594 2.3294 3.57709ZM6.6251 9.9904C6.6251 8.12683 8.13403 6.61985 10 6.61985C11.866 6.61985 13.3749 8.12683 13.3749 9.9904C13.3749 11.854 11.866 13.3609 10 13.3609C8.13403 13.3609 6.6251 11.854 6.6251 9.9904Z" fill="#212121"/>
</svg>
