<svg width="24" height="24" viewBox="0 0 24 24" fill="none" xmlns="http://www.w3.org/2000/svg">
<path fill-rule="evenodd" clip-rule="evenodd" d="M4.3294 3.57709C6.33059 1.19836 9.16687 0 12 0C14.8328 0 17.6573 1.18597 19.671 3.57751C23.149 7.70746 22.609 13.8008 18.8682 17.5502L18.8668 17.5516C16.744 19.6717 14.3012 22.2485 13.2764 23.3297C13.2065 23.4034 13.1432 23.4701 13.0871 23.5293C12.498 24.1569 11.5021 24.1569 10.913 23.5293C10.8568 23.4701 10.7935 23.4034 10.7237 23.3297C9.69881 22.2486 7.256 19.6717 5.13317 17.5516L5.13178 17.5502C1.3919 13.8017 0.850057 7.69594 4.3294 3.57709ZM8.6251 9.9904C8.6251 8.12683 10.134 6.61985 12 6.61985C13.866 6.61985 15.3749 8.12683 15.3749 9.9904C15.3749 11.854 13.866 13.3609 12 13.3609C10.134 13.3609 8.6251 11.854 8.6251 9.9904Z" fill="#212121"/>
</svg>
