<svg width="16" height="16" viewBox="0 0 16 16" fill="none" xmlns="http://www.w3.org/2000/svg">
<circle cx="8" cy="8" r="8" fill="#212121"/>
<path d="M6.18744 5.17192C5.90591 4.89039 5.44945 4.89039 5.16792 5.17192C4.88639 5.45345 4.88639 5.9099 5.16792 6.19144L6.97649 8L5.16792 9.80856C4.88639 10.0901 4.88639 10.5465 5.16792 10.8281C5.44945 11.1096 5.90591 11.1096 6.18744 10.8281L7.996 9.01951L9.80526 10.8288C10.0868 11.1103 10.5432 11.1103 10.8248 10.8288C11.1063 10.5472 11.1063 10.0908 10.8248 9.80926L9.01552 8L10.8248 6.19074C11.1063 5.90921 11.1063 5.45276 10.8248 5.17123C10.5432 4.88969 10.0868 4.88969 9.80526 5.17123L7.996 6.98049L6.18744 5.17192Z" fill="white"/>
</svg>
