<svg width="20" height="16" viewBox="0 0 20 16" fill="none" xmlns="http://www.w3.org/2000/svg">
<path d="M20 2C20 0.89543 19.1046 0 18 0H2C0.89543 0 0 0.89543 0 2V14C0 15.1046 0.89543 16 2 16H18C19.1046 16 20 15.1046 20 14V2ZM7.5 3C8.32843 3 9 3.67157 9 4.5C9 5.32843 8.32843 6 7.5 6C6.67157 6 6 5.32843 6 4.5C6 3.67157 6.67157 3 7.5 3ZM17 12.5C17 12.7761 16.7761 13 16.5 13H3.5C3.22386 13 3 12.7761 3 12.5V12.16C2.99964 12.0501 3.03866 11.9436 3.11 11.86L6 8.19C6.08683 8.08273 6.21274 8.01438 6.35 8C6.50046 7.99826 6.64371 8.06437 6.74 8.18L8.19 9.93C8.28318 10.0441 8.42272 10.1102 8.57 10.11C8.72701 10.1085 8.87456 10.0347 8.97 9.91L11.85 6.19C11.9467 6.06771 12.0941 5.99639 12.25 5.99639C12.4059 5.99639 12.5533 6.06771 12.65 6.19L16.9 11.86C16.9643 11.9469 16.9993 12.0519 17 12.16V12.5Z" fill="#212121"/>
</svg>
