<svg width="24" height="24" viewBox="0 0 24 24" fill="none" xmlns="http://www.w3.org/2000/svg">
<path d="M18.163 10.6987C17.2894 10.7128 16.0893 10.7209 14.7549 10.7492C14.6728 10.7492 14.5926 10.7108 14.5466 10.6422L10.1988 4.13162C10.1988 4.13162 9.32129 2.69986 8.56795 3.0573C8.09912 3.28145 8.10112 3.76409 8.30148 4.55569L10.5374 10.729C10.5675 10.8118 10.5094 10.9006 10.4212 10.9047L6.18973 11.1308C6.05349 11.1389 5.92326 11.0824 5.8351 10.9774L3.95777 8.77017C3.95777 8.77017 3.07621 7.77865 2.76766 7.57065C2.35092 7.28995 1.81597 7.45554 2.06241 8.35216C2.48917 9.90911 3.11628 12.2031 3.19041 12.4737C3.19442 12.4919 3.19442 12.5081 3.19041 12.5263C3.11628 12.7969 2.48917 15.0909 2.06241 16.6478C1.81597 17.5445 2.35092 17.71 2.76766 17.4293C3.07621 17.2234 3.95777 16.2298 3.95777 16.2298L5.8351 14.0226C5.92326 13.9196 6.05349 13.8631 6.18973 13.8692L10.4212 14.0953C10.5094 14.0994 10.5655 14.1882 10.5374 14.271L8.30148 20.4443C8.10313 21.2359 8.09912 21.7206 8.56795 21.9427C9.31928 22.3001 10.1968 20.8684 10.1968 20.8684L14.5466 14.3578C14.5926 14.2892 14.6708 14.2488 14.7549 14.2508C16.0893 14.2791 17.2874 14.2872 18.163 14.3013C22.2222 14.37 21.9978 12.498 21.9978 12.498C21.9978 12.498 22.2222 10.628 18.163 10.6947V10.6987Z" fill="#E0E0E0"/>
</svg>
