<svg width="20" height="20" viewBox="0 0 20 20" fill="none" xmlns="http://www.w3.org/2000/svg">
<path d="M11.3043 1.30435C11.3043 0.583977 10.7204 0 10 0C9.27963 0 8.69565 0.583976 8.69565 1.30435L8.69565 8.69565H1.30435C0.583976 8.69565 0 9.27963 0 10C0 10.7204 0.583976 11.3043 1.30435 11.3043H8.69565V18.6957C8.69565 19.416 9.27963 20 10 20C10.7204 20 11.3043 19.416 11.3043 18.6957V11.3043H18.6957C19.416 11.3043 20 10.7204 20 10C20 9.27963 19.416 8.69565 18.6957 8.69565H11.3043V1.30435Z" fill="white"/>
</svg>
