<svg width="26" height="26" viewBox="0 0 26 26" fill="none" xmlns="http://www.w3.org/2000/svg">
<path fill-rule="evenodd" clip-rule="evenodd" d="M14.25 1C14.25 0.585786 13.9142 0.25 13.5 0.25C13.0858 0.25 12.75 0.585786 12.75 1V12.25H1C0.585787 12.25 0.25 12.5858 0.25 13C0.25 13.4142 0.585787 13.75 1 13.75H12.75V25C12.75 25.4142 13.0858 25.75 13.5 25.75C13.9142 25.75 14.25 25.4142 14.25 25V13.75H25C25.4142 13.75 25.75 13.4142 25.75 13C25.75 12.5858 25.4142 12.25 25 12.25H14.25V1Z" fill="white"/>
</svg>
