<svg width="12" height="20" viewBox="0 0 12 20" fill="none" xmlns="http://www.w3.org/2000/svg">
<path d="M8.18245 8.99307C8.63569 9.33995 8.86231 9.51339 8.94534 9.71978C9.01822 9.90093 9.01822 10.0991 8.94534 10.2802C8.86231 10.4866 8.63569 10.6601 8.18245 11.0069L5.45189 13.0967C4.67169 13.6939 4.28159 13.9924 3.95132 13.9997C3.66429 14.0061 3.39011 13.8935 3.20872 13.6948C3 13.4661 3 13.0073 3 12.0898L3 7.91018C3 6.99265 3 6.53389 3.20872 6.30522C3.39011 6.1065 3.66429 5.9939 3.95132 6.00026C4.28159 6.00757 4.67169 6.30613 5.45189 6.90325L8.18245 8.99307Z" fill="#212121"/>
</svg>
