<svg width="12" height="2" viewBox="0 0 12 2" fill="none" xmlns="http://www.w3.org/2000/svg">
<path d="M2 1C2 1.55229 1.55231 2 1 2C0.44775 2 -6.78527e-08 1.55229 -4.37114e-08 1C-1.95704e-08 0.447719 0.44775 1.95718e-08 1 4.37114e-08C1.55231 6.78537e-08 2 0.447719 2 1Z" fill="#212121"/>
<path d="M7 1C7 1.55225 6.55231 2 6 2C5.44775 2 5 1.55225 5 1C5 0.447688 5.44775 1.95718e-08 6 4.37114e-08C6.55231 6.78538e-08 7 0.447688 7 1Z" fill="#212121"/>
<path d="M12 1C12 1.55231 11.5523 2 11 2C10.4478 2 10 1.55231 10 1C10 0.447688 10.4478 1.95718e-08 11 4.37114e-08C11.5523 6.78538e-08 12 0.447688 12 1Z" fill="#212121"/>
</svg>
