<svg width="20" height="20" viewBox="0 0 20 20" fill="none" xmlns="http://www.w3.org/2000/svg">
<path d="M6 10C6 10.5523 5.55231 11 5 11C4.44775 11 4 10.5523 4 10C4 9.44772 4.44775 9 5 9C5.55231 9 6 9.44772 6 10Z" fill="#212121"/>
<path d="M11 10C11 10.5522 10.5523 11 10 11C9.44775 11 9 10.5522 9 10C9 9.44769 9.44775 9 10 9C10.5523 9 11 9.44769 11 10Z" fill="#212121"/>
<path d="M16 10C16 10.5523 15.5523 11 15 11C14.4478 11 14 10.5523 14 10C14 9.44769 14.4478 9 15 9C15.5523 9 16 9.44769 16 10Z" fill="#212121"/>
</svg>
