<svg width="16" height="16" viewBox="0 0 16 16" fill="none" xmlns="http://www.w3.org/2000/svg">
<path d="M15.4726 1.29087L10.4816 15.2255C10.4221 15.3902 10.2658 15.4999 10.0907 15.5H9.95756C9.79421 15.5 9.64539 15.4061 9.57492 15.2587L7.61182 11.0992C7.32275 10.4859 7.43463 9.75861 7.89464 9.26063L10.3901 6.53194C10.5433 6.37126 10.5433 6.1186 10.3901 5.95792L10.074 5.64179C9.91335 5.48861 9.66073 5.48861 9.50006 5.64179L6.77167 8.13754C6.27374 8.59759 5.54651 8.70949 4.93334 8.42039L0.774207 6.45707C0.613816 6.39667 0.505515 6.24569 0.499705 6.07439V5.94128C0.484974 5.7541 0.597448 5.58026 0.774207 5.517L14.7073 0.525503C14.8571 0.470491 15.0251 0.506046 15.1398 0.617013L15.3561 0.833312C15.4861 0.946885 15.5324 1.12896 15.4726 1.29087Z" fill="#BDBDBD"/>
</svg>
