<svg width="24" height="24" viewBox="0 0 24 24" fill="none" xmlns="http://www.w3.org/2000/svg">
<path fill-rule="evenodd" clip-rule="evenodd" d="M12 3.24707C8.68629 3.24707 6 5.93336 6 9.24707V14.4143C6 14.9666 6.44772 15.4143 7 15.4143H17C17.5523 15.4143 18 14.9666 18 14.4143V9.24707C18 5.93336 15.3137 3.24707 12 3.24707ZM4.5 17.1913C4.22386 17.1913 4 17.4152 4 17.6913V20.7471C4 21.0232 4.22386 21.2471 4.5 21.2471H19.5C19.7761 21.2471 20 21.0232 20 20.7471V17.6913C20 17.4152 19.7761 17.1913 19.5 17.1913H4.5Z" fill="#757575"/>
</svg>
