<svg width="12" height="12" viewBox="0 0 12 12" fill="none" xmlns="http://www.w3.org/2000/svg">
<path fill-rule="evenodd" clip-rule="evenodd" d="M10.5152 7.54993C10.1459 7.21269 9.93816 6.93321 9.9377 6.45598V4.42104C9.9377 2.54336 8.51866 0.984652 6.65638 0.683972V0.299999C6.65638 0.134314 6.50947 0 6.32824 0H5.67198C5.49076 0 5.34385 0.134314 5.34385 0.299999V0.683972C3.48156 0.984652 2.06253 2.54336 2.06253 4.42104V6.45598C2.06207 6.93321 1.85434 7.21269 1.48502 7.54993L0.940317 8.04793C0.819076 8.15969 0.750725 8.31053 0.75 8.46793V8.82193C0.75 9.1533 1.04382 9.42193 1.40626 9.42193H10.594C10.9564 9.42193 11.2502 9.1533 11.2502 8.82193V8.46793C11.2495 8.31053 11.1811 8.15969 11.0599 8.04793L10.5152 7.54993ZM7.45552 11.0338C7.53468 10.8439 7.57542 10.6403 7.57542 10.4348H6.00038L4.42535 10.4348C4.42535 10.6403 4.46609 10.8439 4.54524 11.0338C4.62439 11.2237 4.74041 11.3962 4.88666 11.5416C5.03292 11.6869 5.20655 11.8022 5.39764 11.8809C5.58873 11.9595 5.79355 12 6.00038 12C6.20722 12 6.41203 11.9595 6.60312 11.8809C6.79421 11.8022 6.96784 11.6869 7.1141 11.5416C7.26035 11.3962 7.37637 11.2237 7.45552 11.0338Z" fill="white"/>
</svg>
