<svg width="20" height="20" viewBox="0 0 20 20" fill="none" xmlns="http://www.w3.org/2000/svg">
<path d="M15.8333 3.33366H15V2.08366C15 1.85354 14.8135 1.66699 14.5833 1.66699H13.75C13.5199 1.66699 13.3333 1.85354 13.3333 2.08366V3.33366H6.66667V2.08366C6.66667 1.85354 6.48012 1.66699 6.25 1.66699H5.41667C5.18655 1.66699 5 1.85354 5 2.08366V3.33366H4.16667C3.24619 3.33366 2.5 4.07985 2.5 5.00033V15.8337C2.5 16.7541 3.24619 17.5003 4.16667 17.5003H15.8333C16.7538 17.5003 17.5 16.7541 17.5 15.8337V5.00033C17.5 4.07985 16.7538 3.33366 15.8333 3.33366ZM15.8333 15.8337H4.16667V6.66699H15.8333V15.8337ZM9.58333 10.0003H10.4167C10.6468 10.0003 10.8333 9.81378 10.8333 9.58366V8.75033C10.8333 8.52021 10.6468 8.33366 10.4167 8.33366H9.58333C9.35321 8.33366 9.16667 8.52021 9.16667 8.75033V9.58366C9.16667 9.81378 9.35321 10.0003 9.58333 10.0003ZM12.9167 10.0003H13.75C13.9801 10.0003 14.1667 9.81378 14.1667 9.58366V8.75033C14.1667 8.52021 13.9801 8.33366 13.75 8.33366H12.9167C12.6865 8.33366 12.5 8.52021 12.5 8.75033V9.58366C12.5 9.81378 12.6865 10.0003 12.9167 10.0003ZM6.25 10.0003H7.08333C7.31345 10.0003 7.5 9.81378 7.5 9.58366V8.75033C7.5 8.52021 7.31345 8.33366 7.08333 8.33366H6.25C6.01988 8.33366 5.83333 8.52021 5.83333 8.75033V9.58366C5.83333 9.81378 6.01988 10.0003 6.25 10.0003ZM9.58333 13.3337H10.4167C10.6468 13.3337 10.8333 13.1471 10.8333 12.917V12.0837C10.8333 11.8535 10.6468 11.667 10.4167 11.667H9.58333C9.35321 11.667 9.16667 11.8535 9.16667 12.0837V12.917C9.16667 13.1471 9.35321 13.3337 9.58333 13.3337ZM6.25 13.3337H7.08333C7.31345 13.3337 7.5 13.1471 7.5 12.917V12.0837C7.5 11.8535 7.31345 11.667 7.08333 11.667H6.25C6.01988 11.667 5.83333 11.8535 5.83333 12.0837V12.917C5.83333 13.1471 6.01988 13.3337 6.25 13.3337Z" fill="#BDBDBD"/>
</svg>
