<svg width="20" height="20" viewBox="0 0 20 20" fill="none" xmlns="http://www.w3.org/2000/svg">
<g clip-path="url(#clip0_1724_27725)">
<path d="M17.8859 16.6313L14.331 13.0715C14.2159 12.9535 14.0877 12.849 13.9489 12.76L13.0601 12.1459C14.8882 9.88086 14.9052 6.64977 13.101 4.36556C11.2969 2.08134 8.15315 1.35364 5.53098 2.61326C2.90881 3.87288 1.50803 6.78365 2.15795 9.62231C2.80787 12.461 5.33502 14.4699 8.24327 14.4598C9.6546 14.4602 11.0241 13.9801 12.127 13.0982L12.7935 13.9881C12.8726 14.1028 12.9618 14.21 13.0601 14.3085L16.615 17.8684C16.6985 17.9526 16.812 18 16.9305 18C17.049 18 17.1626 17.9526 17.246 17.8684L17.8681 17.2454C18.0368 17.0783 18.0447 16.8079 17.8859 16.6313ZM8.24327 12.6799C5.78913 12.6799 3.79966 10.6877 3.79966 8.2301C3.79966 5.77255 5.78913 3.7803 8.24327 3.7803C10.6974 3.7803 12.6869 5.77255 12.6869 8.2301C12.6869 9.41027 12.2187 10.5421 11.3854 11.3766C10.552 12.2111 9.42179 12.6799 8.24327 12.6799Z" fill="#212121"/>
</g>
<defs>
<clipPath id="clip0_1724_27725">
<rect width="20" height="20" fill="white"/>
</clipPath>
</defs>
</svg>
