<svg width="24" height="24" viewBox="0 0 24 24" fill="none" xmlns="http://www.w3.org/2000/svg">
<path fill-rule="evenodd" clip-rule="evenodd" d="M16.9077 19.6769C17.247 19.9738 17.7537 19.9738 18.093 19.6769L20.093 17.9269C20.4671 17.5996 20.505 17.031 20.1777 16.657C19.8504 16.2829 19.2818 16.245 18.9077 16.5723L18.4004 17.0162L18.4004 4.99961C18.4004 4.50255 17.9974 4.09961 17.5004 4.09961C17.0033 4.09961 16.6004 4.50255 16.6004 4.99961L16.6004 17.0162L16.093 16.5723C15.719 16.245 15.1504 16.2829 14.8231 16.657C14.4957 17.031 14.5336 17.5996 14.9077 17.9269L16.9077 19.6769ZM7.09344 4.32239C6.75412 4.02548 6.24745 4.02548 5.90813 4.32239L3.90813 6.07239C3.53406 6.3997 3.49615 6.96829 3.82346 7.34236C4.15078 7.71643 4.71936 7.75434 5.09344 7.42703L5.60078 6.9831L5.60078 18.9997C5.60078 19.4968 6.00373 19.8997 6.50078 19.8997C6.99784 19.8997 7.40078 19.4968 7.40078 18.9997L7.40078 6.9831L7.90813 7.42703C8.2822 7.75434 8.85079 7.71643 9.1781 7.34236C9.50542 6.96829 9.46751 6.3997 9.09344 6.07239L7.09344 4.32239Z" fill="#757575"/>
</svg>
