<svg width="24" height="24" viewBox="0 0 24 24" fill="none" xmlns="http://www.w3.org/2000/svg">
<path fill-rule="evenodd" clip-rule="evenodd" d="M4.3607 7.44019C4.08029 7.76066 4.08029 8.23917 4.3607 8.55964L6.1107 10.5596C6.41983 10.9129 6.95683 10.9487 7.31012 10.6396C7.66341 10.3305 7.69921 9.79348 7.39008 9.44019L6.87359 8.84992L19.0004 8.84992C19.4698 8.84992 19.8504 8.46936 19.8504 7.99992C19.8504 7.53047 19.4698 7.14992 19.0004 7.14992L6.87359 7.14992L7.39008 6.55964C7.69921 6.20635 7.66341 5.66935 7.31012 5.36022C6.95683 5.05109 6.41983 5.08689 6.1107 5.44019L4.3607 7.44019ZM17.8901 18.5596L19.6401 16.5596C19.9205 16.2392 19.9205 15.7607 19.6401 15.4402L17.8901 13.4402C17.581 13.0869 17.044 13.0511 16.6907 13.3602C16.3374 13.6694 16.3016 14.2064 16.6107 14.5596L17.1272 15.1499L5.00039 15.1499C4.53095 15.1499 4.15039 15.5305 4.15039 15.9999C4.15039 16.4694 4.53095 16.8499 5.00039 16.8499L17.1272 16.8499L16.6107 17.4402C16.3016 17.7935 16.3374 18.3305 16.6907 18.6396C17.044 18.9487 17.581 18.9129 17.8901 18.5596Z" fill="#757575"/>
</svg>
