<svg width="320" height="140" viewBox="0 0 320 140" fill="none" xmlns="http://www.w3.org/2000/svg">
<mask id="path-1-inside-1_1312_16575" fill="white">
<path fill-rule="evenodd" clip-rule="evenodd" d="M0 4C0 1.79086 1.79086 0 4 0H316C318.209 0 320 1.79086 320 4V33C315.029 33 311 37.0294 311 42C311 46.9706 315.029 51 320 51V136C320 138.209 318.209 140 316 140H4C1.79086 140 0 138.209 0 136V51C4.97056 51 9 46.9706 9 42C9 37.0294 4.97056 33 0 33V4Z"/>
</mask>
<path fill-rule="evenodd" clip-rule="evenodd" d="M0 4C0 1.79086 1.79086 0 4 0H316C318.209 0 320 1.79086 320 4V33C315.029 33 311 37.0294 311 42C311 46.9706 315.029 51 320 51V136C320 138.209 318.209 140 316 140H4C1.79086 140 0 138.209 0 136V51C4.97056 51 9 46.9706 9 42C9 37.0294 4.97056 33 0 33V4Z" fill="white"/>
<path d="M320 33V34H321V33H320ZM320 51H321V50H320V51ZM0 51V50H-1V51H0ZM0 33H-1V34H0V33ZM4 -1C1.23858 -1 -1 1.23858 -1 4H1C1 2.34315 2.34315 1 4 1V-1ZM316 -1H4V1H316V-1ZM321 4C321 1.23858 318.761 -1 316 -1V1C317.657 1 319 2.34315 319 4H321ZM321 33V4H319V33H321ZM312 42C312 37.5817 315.582 34 320 34V32C314.477 32 310 36.4772 310 42H312ZM320 50C315.582 50 312 46.4183 312 42H310C310 47.5228 314.477 52 320 52V50ZM321 136V51H319V136H321ZM316 141C318.761 141 321 138.761 321 136H319C319 137.657 317.657 139 316 139V141ZM4 141H316V139H4V141ZM-1 136C-1 138.761 1.23857 141 4 141V139C2.34314 139 1 137.657 1 136H-1ZM-1 51V136H1V51H-1ZM8 42C8 46.4183 4.41828 50 0 50V52C5.52285 52 10 47.5228 10 42H8ZM0 34C4.41828 34 8 37.5817 8 42H10C10 36.4772 5.52285 32 0 32V34ZM-1 4V33H1V4H-1Z" fill="#EEEEEE" mask="url(#path-1-inside-1_1312_16575)"/>
<path d="M10 42L310 42" stroke="#EEEEEE" stroke-dasharray="2 2"/>
</svg>
