<svg width="20" height="20" viewBox="0 0 20 20" fill="none" xmlns="http://www.w3.org/2000/svg">
<g clip-path="url(#clip0_478_9931)">
<path d="M10.0001 1.66699C5.39771 1.66699 1.66675 5.39795 1.66675 10.0003C1.66675 14.6027 5.39771 18.3337 10.0001 18.3337C14.6025 18.3337 18.3334 14.6027 18.3334 10.0003C18.3334 7.79019 17.4554 5.67057 15.8926 4.10777C14.3298 2.54497 12.2102 1.66699 10.0001 1.66699ZM10.0001 16.667C6.31818 16.667 3.33341 13.6822 3.33341 10.0003C3.33341 6.31843 6.31818 3.33366 10.0001 3.33366C13.682 3.33366 16.6667 6.31843 16.6667 10.0003C16.6667 11.7684 15.9644 13.4641 14.7141 14.7144C13.4639 15.9646 11.7682 16.667 10.0001 16.667ZM10.7334 9.70033V5.41699C10.7334 5.18687 10.5469 5.00033 10.3167 5.00033H9.68341C9.4533 5.00033 9.26675 5.18687 9.26675 5.41699V10.1337C9.27084 10.243 9.31539 10.3469 9.39175 10.4253L12.7251 13.7587C12.8899 13.9185 13.1519 13.9185 13.3167 13.7587L13.7584 13.317C13.9182 13.1521 13.9182 12.8902 13.7584 12.7253L10.7334 9.70033Z" fill="#BDBDBD"/>
</g>
<defs>
<clipPath id="clip0_478_9931">
<rect width="20" height="20" fill="white"/>
</clipPath>
</defs>
</svg>
