<svg width="14" height="18" viewBox="0 0 14 18" fill="none" xmlns="http://www.w3.org/2000/svg">
<path d="M14 2.25V3.15C14 3.39853 13.8041 3.6 13.5625 3.6H0.4375C0.195875 3.6 0 3.39853 0 3.15V2.25C0 2.00147 0.195875 1.8 0.4375 1.8H4.375V0.9C4.375 0.402944 4.76675 0 5.25 0H8.75C9.23325 0 9.625 0.402944 9.625 0.9V1.8H13.5625C13.8041 1.8 14 2.00147 14 2.25ZM1.63625 16.326C1.70069 17.2706 2.46564 18.0023 3.38625 18H10.6312C11.5519 18.0023 12.3168 17.2706 12.3812 16.326L13.125 5.4H0.875L1.63625 16.326Z" fill="#212121"/>
</svg>
