<svg width="7" height="7" viewBox="0 0 7 7" fill="none" xmlns="http://www.w3.org/2000/svg">
<path d="M1.23066 0.211843C0.949132 -0.0696879 0.49268 -0.0696879 0.211148 0.211843C-0.0703827 0.493374 -0.0703828 0.949827 0.211148 1.23136L2.01971 3.03992L0.211148 4.84849C-0.0703828 5.13002 -0.0703829 5.58647 0.211148 5.868C0.49268 6.14953 0.949132 6.14953 1.23066 5.868L3.03923 4.05944L4.84849 5.8687C5.13002 6.15023 5.58647 6.15023 5.868 5.8687C6.14953 5.58717 6.14953 5.13071 5.868 4.84918L4.05874 3.03992L5.868 1.23066C6.14953 0.949132 6.14953 0.49268 5.868 0.211148C5.58647 -0.0703828 5.13002 -0.0703828 4.84849 0.211148L3.03923 2.02041L1.23066 0.211843Z" fill="white"/>
</svg>
