<svg width="16" height="16" viewBox="0 0 16 16" fill="none" xmlns="http://www.w3.org/2000/svg">
<path fill-rule="evenodd" clip-rule="evenodd" d="M13.6014 3.59997C13.9334 3.26802 13.9334 2.72983 13.6014 2.39789C13.2695 2.06594 12.7313 2.06594 12.3994 2.39789L8.00039 6.79684L3.60143 2.39789C3.26949 2.06594 2.7313 2.06594 2.39935 2.39789C2.0674 2.72983 2.0674 3.26802 2.39935 3.59997L6.79831 7.99893L2.39935 12.3979C2.0674 12.7298 2.0674 13.268 2.39935 13.6C2.7313 13.9319 3.26949 13.9319 3.60143 13.6L8.00039 9.20101L12.3994 13.6C12.7313 13.9319 13.2695 13.9319 13.6014 13.6C13.9334 13.268 13.9334 12.7298 13.6014 12.3979L9.20247 7.99893L13.6014 3.59997Z" fill="white"/>
</svg>
